<svg xmlns="http://www.w3.org/2000/svg" width="421" height="355" fill="none"><g clip-path="url(#a)"><rect width="380" height="74" x="20.823" y="21.934" fill="url(#b)" fill-opacity=".1" rx="10"/><rect width="380" height="74" x="20.823" y="21.934" fill="url(#c)" fill-opacity=".1" rx="10"/><rect width="379" height="73" x="21.323" y="22.434" stroke="url(#d)" stroke-opacity=".3" rx="9.5"/><rect width="379" height="73" x="21.323" y="22.434" stroke="url(#e)" stroke-opacity=".1" rx="9.5"/><path fill="#fff" d="M36.138 40.174v-1.656h8.703v1.656h-3.37v9.26h-1.956v-9.26h-3.377Zm10.974 9.428a3.41 3.41 0 0 1-1.406-.278 2.28 2.28 0 0 1-.982-.835c-.24-.367-.359-.819-.359-1.356 0-.459.086-.84.256-1.143.171-.302.404-.544.697-.725a3.61 3.61 0 0 1 1.003-.41 7.353 7.353 0 0 1 1.15-.205 55.3 55.3 0 0 0 1.172-.14c.298-.038.513-.102.645-.19.137-.088.205-.224.205-.41v-.037c0-.395-.117-.703-.351-.923-.235-.22-.577-.33-1.026-.33-.474 0-.85.103-1.128.308-.274.205-.46.447-.557.726l-1.795-.257a2.85 2.85 0 0 1 .703-1.245 3.061 3.061 0 0 1 1.195-.755 4.59 4.59 0 0 1 1.567-.256c.391 0 .782.046 1.172.139.391.088.75.24 1.077.454.328.215.589.503.784.865.196.361.293.813.293 1.355v5.48h-1.853v-1.129h-.059a2.385 2.385 0 0 1-1.29 1.114c-.312.122-.683.183-1.113.183Zm.491-1.421c.39 0 .728-.076 1.011-.227a1.76 1.76 0 0 0 .66-.616 1.6 1.6 0 0 0 .234-.842v-.96a1.02 1.02 0 0 1-.308.14 6.092 6.092 0 0 1-.483.11 17.28 17.28 0 0 1-.982.147 3.22 3.22 0 0 0-.776.197 1.3 1.3 0 0 0-.535.366c-.132.156-.198.359-.198.608 0 .357.13.625.388.806.259.18.589.27.99.27Zm11.714-4.762-1.75.183a1.406 1.406 0 0 0-.477-.71c-.244-.21-.589-.315-1.033-.315-.4 0-.737.088-1.01.263-.27.176-.404.4-.404.674 0 .24.088.437.264.594.18.151.479.273.894.366l1.399.293c.767.161 1.34.425 1.721.791.381.367.572.84.572 1.421 0 .513-.149.968-.447 1.363-.298.396-.71.703-1.238.923-.523.22-1.126.33-1.81.33-1 0-1.806-.21-2.417-.63-.606-.425-.97-1.014-1.092-1.766l1.883-.176c.083.367.264.645.542.835.284.186.645.279 1.084.279.46 0 .828-.093 1.107-.279.278-.19.417-.422.417-.695 0-.46-.366-.772-1.099-.938l-1.399-.293c-.786-.171-1.367-.447-1.743-.828-.376-.386-.564-.877-.564-1.472 0-.508.139-.948.417-1.32.279-.37.667-.658 1.165-.863.498-.206 1.074-.308 1.729-.308.962 0 1.717.207 2.264.623.551.41.893.962 1.025 1.655Zm2.974 3.45-.007-2.336h.315l2.938-3.29h2.256l-3.619 4.037h-.403l-1.48 1.59Zm-1.758 2.565V38.518h1.927v10.916h-1.927Zm5.136 0-2.667-3.722 1.304-1.363 3.67 5.085H65.67Zm9.296-6.015-1.75.183a1.407 1.407 0 0 0-.477-.71c-.244-.21-.588-.315-1.033-.315-.4 0-.737.088-1.01.263-.27.176-.404.4-.404.674 0 .24.088.437.264.594.18.151.478.273.894.366l1.399.293c.767.161 1.34.425 1.721.791.381.367.572.84.572 1.421 0 .513-.15.968-.447 1.363-.298.396-.71.703-1.238.923-.523.22-1.126.33-1.81.33-1 0-1.807-.21-2.417-.63-.606-.425-.97-1.014-1.092-1.766l1.883-.176c.083.367.264.645.542.835.284.186.645.279 1.084.279.46 0 .828-.093 1.107-.279.278-.19.417-.422.417-.695 0-.46-.366-.772-1.099-.938l-1.399-.293c-.786-.171-1.367-.447-1.743-.828-.377-.386-.564-.877-.564-1.472 0-.508.139-.948.417-1.32.278-.37.667-.658 1.165-.863.498-.206 1.074-.308 1.729-.308.962 0 1.716.207 2.263.623.552.41.894.962 1.026 1.655Zm4.461 6.015V38.518h4.096c.84 0 1.543.156 2.11.469a3.143 3.143 0 0 1 1.296 1.29c.293.546.44 1.167.44 1.86 0 .699-.15 1.321-.447 1.868-.293.542-.728.97-1.304 1.282-.577.308-1.285.462-2.125.462h-2.71v-1.627h2.44c.493 0 .895-.083 1.208-.249.317-.17.55-.405.696-.703.151-.303.227-.647.227-1.033 0-.39-.076-.733-.227-1.026a1.51 1.51 0 0 0-.696-.688c-.313-.166-.718-.25-1.216-.25h-1.81v9.26h-1.978Zm9.019 0v-8.19h1.868v1.377h.087c.147-.479.403-.845.77-1.1a2.117 2.117 0 0 1 1.252-.388 4.793 4.793 0 0 1 .689.052v1.773a1.894 1.894 0 0 0-.388-.074 4.592 4.592 0 0 0-.506-.029c-.356 0-.674.076-.952.227a1.722 1.722 0 0 0-.66.623 1.776 1.776 0 0 0-.234.923v4.806h-1.926Zm5.391 0v-8.19h1.927v8.19h-1.927Zm.967-9.34c-.307 0-.571-.103-.79-.309a.976.976 0 0 1-.33-.74c0-.292.11-.541.33-.747.219-.205.483-.307.79-.307.303 0 .564.102.784.307.22.206.33.452.33.74 0 .293-.11.542-.33.748a1.11 1.11 0 0 1-.784.307Zm5.956 9.5c-.8 0-1.494-.175-2.08-.527a3.568 3.568 0 0 1-1.363-1.48c-.317-.634-.476-1.372-.476-2.212 0-.845.159-1.585.476-2.22a3.559 3.559 0 0 1 1.363-1.487c.586-.351 1.28-.527 2.08-.527.801 0 1.495.176 2.081.527a3.56 3.56 0 0 1 1.362 1.487c.323.635.484 1.375.484 2.22 0 .84-.161 1.578-.484 2.212a3.564 3.564 0 0 1-1.362 1.48c-.586.352-1.28.528-2.081.528Zm0-1.552c.445 0 .811-.117 1.099-.352.288-.24.503-.562.645-.967.146-.405.219-.855.219-1.348a4 4 0 0 0-.219-1.362c-.142-.406-.357-.726-.645-.96-.288-.24-.654-.36-1.099-.36-.434 0-.798.12-1.091.36-.293.234-.513.554-.66.96-.141.405-.212.86-.212 1.362 0 .493.07.943.212 1.348.147.405.367.728.66.967.293.235.657.352 1.091.352Zm4.989 1.392v-8.19h1.868v1.377h.088c.147-.479.403-.845.769-1.1a2.12 2.12 0 0 1 1.253-.388 4.8 4.8 0 0 1 .689.052v1.773a1.901 1.901 0 0 0-.389-.074 4.587 4.587 0 0 0-.505-.029c-.357 0-.674.076-.953.227a1.722 1.722 0 0 0-.659.623 1.78 1.78 0 0 0-.234.923v4.806h-1.927Zm5.392 0v-8.19h1.927v8.19h-1.927Zm.967-9.34c-.308 0-.572-.103-.791-.309a.976.976 0 0 1-.33-.74c0-.292.11-.541.33-.747.219-.205.483-.307.791-.307.303 0 .564.102.784.307a.978.978 0 0 1 .329.74.99.99 0 0 1-.329.748 1.11 1.11 0 0 1-.784.307Zm6.469 1.15v1.494h-4.696v-1.495h4.696Zm-3.546-1.95h1.927v7.678c0 .322.07.562.212.718.142.152.366.227.674.227.083 0 .176-.007.278-.022a3.21 3.21 0 0 0 .279-.051l.329 1.509c-.205.063-.412.11-.622.14-.21.033-.42.05-.63.05-.762 0-1.36-.2-1.795-.6-.435-.406-.652-.957-.652-1.656v-7.992Zm4.608 10.14v-8.19h1.926v8.19h-1.926Zm.967-9.34c-.308 0-.572-.103-.791-.309a.976.976 0 0 1-.33-.74c0-.292.11-.541.33-.747.219-.205.483-.307.791-.307.303 0 .564.102.784.307a.978.978 0 0 1 .329.74.99.99 0 0 1-.329.748 1.11 1.11 0 0 1-.784.307Zm6.014 9.5c-.82 0-1.528-.17-2.124-.512a3.497 3.497 0 0 1-1.377-1.465c-.318-.63-.477-1.373-.477-2.227 0-.845.159-1.585.477-2.22a3.587 3.587 0 0 1 1.34-1.494c.576-.357 1.255-.535 2.037-.535.503 0 .979.08 1.428.242.454.16.855.41 1.202.747.351.337.627.767.828 1.29.2.517.3 1.135.3 1.852v.601h-6.711v-1.296h5.751l-.901.38c0-.463-.071-.866-.212-1.208a1.798 1.798 0 0 0-.63-.813c-.279-.196-.625-.293-1.041-.293-.415 0-.769.097-1.062.293a1.86 1.86 0 0 0-.667.79 2.592 2.592 0 0 0-.227 1.1v.9c0 .499.086.926.257 1.283.176.351.42.62.732.806.318.185.687.278 1.107.278.273 0 .522-.04.747-.117.229-.078.425-.196.586-.352.166-.161.293-.359.381-.593l1.802.212a2.889 2.889 0 0 1-.652 1.246 3.13 3.13 0 0 1-1.209.82c-.488.19-1.05.286-1.685.286Zm11.143-6.175-1.751.183a1.405 1.405 0 0 0-.476-.71c-.244-.21-.589-.315-1.033-.315-.401 0-.738.088-1.011.263-.269.176-.403.4-.403.674 0 .24.088.437.264.594.18.151.478.273.893.366l1.4.293c.766.161 1.34.425 1.721.791.381.367.572.84.572 1.421 0 .513-.149.968-.447 1.363-.298.396-.711.703-1.238.923-.523.22-1.126.33-1.81.33-1.001 0-1.807-.21-2.417-.63-.606-.425-.97-1.014-1.092-1.766l1.883-.176c.083.367.264.645.542.835.283.186.645.279 1.084.279.459 0 .828-.093 1.106-.279.279-.19.418-.422.418-.695 0-.46-.366-.772-1.099-.938l-1.399-.293c-.786-.171-1.368-.447-1.744-.828-.376-.386-.564-.877-.564-1.472 0-.508.139-.948.418-1.32.278-.37.666-.658 1.165-.863.498-.206 1.074-.308 1.729-.308.962 0 1.716.207 2.263.623.552.41.894.962 1.026 1.655Z"/><rect width="54" height="24" x="331.823" y="31.934" fill="#fff" fill-opacity=".07" rx="12"/><rect width="55" height="25" x="331.323" y="31.434" stroke="#fff" stroke-opacity=".12" rx="12.5"/><path fill="#C9CBCF" d="M342.747 49.06c-.728 0-1.352-.19-1.873-.57-.516-.382-.912-.932-1.187-1.652-.271-.724-.407-1.6-.407-2.628 0-1.025.138-1.899.413-2.623.275-.728.671-1.282 1.187-1.663.521-.385 1.143-.578 1.867-.578.728 0 1.35.193 1.867.578.52.381.916.935 1.187 1.663.275.724.413 1.598.413 2.623 0 1.028-.136 1.904-.407 2.628-.27.72-.664 1.27-1.181 1.651-.516.381-1.142.572-1.879.572Zm0-1.218c.445 0 .819-.142 1.124-.426.305-.283.537-.696.698-1.238.161-.546.242-1.202.242-1.968 0-.77-.081-1.427-.242-1.968-.161-.546-.393-.961-.698-1.245a1.575 1.575 0 0 0-1.124-.432c-.656 0-1.164.32-1.524.959-.355.635-.533 1.53-.533 2.686 0 .766.08 1.422.241 1.968.161.542.394.955.699 1.238.309.284.681.426 1.117.426Zm4.381-.756v-1.15l4.083-6.463h.908v1.702h-.585l-2.92 4.622v.076h5.606v1.213h-7.092Zm4.47 1.848v-2.197l.013-.527v-6.737h1.358v9.46h-1.371Z"/><path fill="#5F646D" d="m363.077 39.029-3.047 11.327h-1.232l3.047-11.327h1.232Zm8.174 1.399v8.006h-1.193v-6.791h-.053l-1.902 1.251v-1.16l1.988-1.306h1.16Zm1.182 8.006v-.87l2.708-2.816c.286-.3.523-.566.709-.795.19-.233.331-.453.424-.661.097-.208.146-.428.146-.66 0-.27-.063-.5-.189-.694a1.232 1.232 0 0 0-.51-.446 1.657 1.657 0 0 0-.731-.156c-.286 0-.535.06-.746.178a1.214 1.214 0 0 0-.495.494 1.55 1.55 0 0 0-.172.747h-1.149c0-.488.111-.914.333-1.279a2.29 2.29 0 0 1 .924-.849 2.852 2.852 0 0 1 1.332-.306c.505 0 .949.1 1.333.3.383.201.682.473.897.817.215.34.322.726.322 1.155 0 .298-.055.588-.166.87-.108.284-.299.6-.575.952-.272.347-.652.766-1.139 1.257l-1.59 1.666v.064h3.599v1.032h-5.265Z"/><g filter="url(#f)"><g clip-path="url(#g)"><rect width="209" height="10" x="35.823" y="71.934" fill="#2AC10B" rx="5"/><path stroke="url(#h)" d="M247.961-76.25 304.682 54M240.694-73.085l56.721 130.25M234.89-70.558l56.721 130.25M229.084-68.03l56.722 130.25M223.28-65.502l56.721 130.25M217.475-62.974l56.721 130.25M211.67-60.446l56.721 130.25M205.865-57.918l56.721 130.25M200.06-55.39l56.721 130.25M194.255-52.862l56.721 130.25M188.45-50.334l56.721 130.25M182.645-47.806l56.721 130.25M176.84-45.28l56.722 130.25M171.035-42.75 227.757 87.5M165.231-40.223l56.721 130.25M159.426-37.695l56.721 130.25M153.621-35.167l56.721 130.25M147.816-32.639l56.721 130.25M142.011-30.11l56.721 130.25M136.206-27.583l56.721 130.25M130.401-25.055l56.721 130.25M124.596-22.527l56.722 130.25M118.791-19.999l56.722 130.25M112.987-17.471l56.721 130.25M107.182-14.944l56.721 130.25M101.377-12.416l56.721 130.25M95.572-9.888l56.721 130.25M89.767-7.36l56.721 130.25M83.962-4.832l56.721 130.25M78.157-2.304l56.721 130.25M72.352.224l56.722 130.25M66.547 2.752l56.722 130.25M60.743 5.28l56.721 130.25M54.938 7.808l56.721 130.25M49.133 10.336l56.721 130.25M43.328 12.863l56.721 130.25M37.523 15.391l56.721 130.25M31.718 17.919 88.44 148.17M25.913 20.447l56.721 130.25M20.108 22.975l56.721 130.25M14.304 25.503l56.72 130.25M8.5 28.031l56.72 130.25M2.695 30.559l56.72 130.25M-3.11 33.087l56.721 130.25M-8.916 35.615l56.721 130.25M-14.72 38.142 42 168.394M-20.526 40.67l56.721 130.25M-26.33 43.198l56.721 130.25"/></g></g><g filter="url(#i)"><g clip-path="url(#j)"><rect width="91" height="10" x="248.823" y="71.934" fill="#B8C10B" rx="5"/><path stroke="url(#k)" d="M401.961-76.25 458.682 54M394.694-73.085l56.721 130.25M388.89-70.558l56.721 130.25M383.084-68.03l56.722 130.25M377.28-65.502l56.721 130.25M371.475-62.974l56.721 130.25M365.67-60.446l56.721 130.25M359.865-57.918l56.721 130.25M354.06-55.39l56.721 130.25M348.255-52.862l56.721 130.25M342.45-50.334l56.721 130.25M336.645-47.806l56.721 130.25M330.84-45.28l56.722 130.25M325.035-42.75 381.757 87.5M319.231-40.223l56.721 130.25M313.426-37.695l56.721 130.25M307.621-35.167l56.721 130.25M301.816-32.639l56.721 130.25M296.011-30.11l56.721 130.25M290.206-27.583l56.721 130.25M284.401-25.055l56.721 130.25M278.596-22.527l56.722 130.25M272.791-19.999l56.722 130.25M266.987-17.471l56.721 130.25M261.182-14.944l56.721 130.25M255.377-12.416l56.721 130.25M249.572-9.888l56.721 130.25M243.767-7.36l56.721 130.25M237.962-4.832l56.721 130.25M232.157-2.304l56.721 130.25M226.352.224l56.722 130.25M220.547 2.752l56.722 130.25M214.743 5.28l56.721 130.25M208.938 7.808l56.721 130.25M203.133 10.336l56.721 130.25M197.328 12.863l56.721 130.25M191.523 15.391l56.721 130.25M185.718 17.919l56.721 130.25M179.913 20.447l56.721 130.25M174.108 22.975l56.722 130.25M168.303 25.503l56.722 130.25M162.499 28.031l56.721 130.25M156.694 30.559l56.721 130.25M150.889 33.087l56.721 130.25M145.084 35.615l56.721 130.25M139.279 38.142 196 168.394M133.474 40.67l56.721 130.25M127.669 43.198l56.721 130.25"/></g></g><g filter="url(#l)"><g clip-path="url(#m)"><rect width="42" height="10" x="343.823" y="71.934" fill="#C1630B" rx="5"/><path stroke="url(#n)" d="M471.961-76.25 528.682 54M464.694-73.085l56.721 130.25M458.89-70.558l56.721 130.25M453.084-68.03l56.722 130.25M447.28-65.502l56.721 130.25M441.475-62.974l56.721 130.25M435.67-60.446l56.721 130.25M429.865-57.918l56.721 130.25M424.06-55.39l56.721 130.25M418.255-52.862l56.721 130.25M412.45-50.334l56.721 130.25M406.645-47.806l56.721 130.25M400.84-45.28l56.722 130.25M395.035-42.75 451.757 87.5M389.231-40.223l56.721 130.25M383.426-37.695l56.721 130.25M377.621-35.167l56.721 130.25M371.816-32.639l56.721 130.25M366.011-30.11l56.721 130.25M360.206-27.583l56.721 130.25M354.401-25.055l56.721 130.25M348.596-22.527l56.722 130.25M342.791-19.999l56.722 130.25M336.987-17.471l56.721 130.25M331.182-14.944l56.721 130.25M325.377-12.416l56.721 130.25M319.572-9.888l56.721 130.25M313.767-7.36l56.721 130.25M307.962-4.832l56.721 130.25M302.157-2.304l56.721 130.25M296.352.224l56.722 130.25M290.547 2.752l56.722 130.25M284.743 5.28l56.721 130.25M278.938 7.808l56.721 130.25M273.133 10.336l56.721 130.25M267.328 12.863l56.721 130.25M261.523 15.391l56.721 130.25M255.718 17.919l56.721 130.25M249.913 20.447l56.721 130.25M244.108 22.975l56.722 130.25M238.303 25.503l56.722 130.25M232.499 28.031l56.721 130.25M226.694 30.559l56.721 130.25M220.889 33.087l56.721 130.25M215.084 35.615l56.721 130.25M209.279 38.142 266 168.394M203.474 40.67l56.721 130.25M197.669 43.198l56.721 130.25"/></g></g><rect width="380" height="262.515" x="20.823" y="110.934" fill="url(#o)" fill-opacity=".1" rx="10"/><rect width="380" height="262.515" x="20.823" y="110.934" fill="url(#p)" fill-opacity=".1" rx="10"/><rect width="379" height="261.515" x="21.323" y="111.434" stroke="url(#q)" stroke-opacity=".3" rx="9.5"/><mask id="r" fill="#fff"><path d="M20.823 110.934h380v45.504h-380v-45.504Z"/></mask><path fill="#fff" fill-opacity=".05" d="M400.823 155.501h-380v1.875h380v-1.875Z" mask="url(#r)"/><path fill="#fff" d="M36.617 139.186V128.27h1.978v9.26h4.813v1.656h-6.79Zm10.205.168a3.42 3.42 0 0 1-1.406-.278 2.285 2.285 0 0 1-.982-.835c-.24-.367-.359-.819-.359-1.356 0-.459.085-.84.256-1.143.171-.302.403-.544.696-.725a3.607 3.607 0 0 1 1.004-.41 7.307 7.307 0 0 1 1.15-.205 65.3 65.3 0 0 0 1.172-.139c.298-.039.513-.103.645-.191.137-.088.205-.225.205-.41v-.037c0-.395-.117-.703-.352-.923-.234-.22-.576-.329-1.025-.329-.474 0-.85.102-1.128.307a1.54 1.54 0 0 0-.557.725l-1.795-.256a2.85 2.85 0 0 1 .703-1.245 3.061 3.061 0 0 1 1.194-.755 4.588 4.588 0 0 1 1.568-.256c.39 0 .782.046 1.172.139.391.088.75.239 1.077.454.327.215.589.503.784.865.195.361.293.813.293 1.355v5.48h-1.853v-1.129h-.059a2.394 2.394 0 0 1-.498.638 2.43 2.43 0 0 1-.791.476c-.313.122-.684.183-1.114.183Zm.491-1.421c.39 0 .728-.076 1.011-.227a1.75 1.75 0 0 0 .66-.616c.156-.258.234-.539.234-.842v-.96a1.016 1.016 0 0 1-.308.139 6.042 6.042 0 0 1-.483.11 16.211 16.211 0 0 1-.982.147 3.21 3.21 0 0 0-.777.198c-.224.088-.403.21-.534.366-.132.156-.198.359-.198.608 0 .356.13.625.388.806.259.18.589.271.989.271Zm7.18-3.539v4.792h-1.927v-8.191h1.89v1.4h.095a2.35 2.35 0 0 1 .872-1.092c.4-.274.908-.41 1.523-.41.567 0 1.06.119 1.48.359.42.239.745.591.975 1.055.234.459.351 1.015.351 1.67v5.209h-1.926v-4.909c0-.547-.142-.974-.425-1.282-.284-.312-.674-.469-1.173-.469a1.83 1.83 0 0 0-.9.22 1.581 1.581 0 0 0-.616.638c-.146.273-.22.61-.22 1.01Zm9.706 4.938c-.64 0-1.216-.164-1.729-.491-.508-.332-.908-.813-1.201-1.443-.293-.63-.44-1.394-.44-2.293 0-.913.15-1.682.447-2.308.303-.625.708-1.098 1.216-1.421a3.121 3.121 0 0 1 1.707-.483c.484 0 .88.08 1.187.241.308.162.552.357.732.587.186.224.328.434.425.63h.08v-4.081h1.92v10.916H66.66v-1.297h-.117c-.102.2-.246.413-.432.637-.186.22-.432.41-.74.572-.307.156-.698.234-1.172.234Zm.535-1.582c.41 0 .757-.11 1.04-.33.288-.225.508-.535.66-.93a3.96 3.96 0 0 0 .227-1.392c0-.533-.076-.994-.228-1.385-.146-.395-.364-.701-.652-.916-.283-.214-.632-.322-1.047-.322-.425 0-.782.112-1.07.337-.288.225-.505.535-.652.93a4.014 4.014 0 0 0-.212 1.356c0 .508.073.962.22 1.362.146.401.361.716.644.945.288.23.645.345 1.07.345Zm8.864 1.597c-.82 0-1.529-.171-2.124-.513a3.502 3.502 0 0 1-1.378-1.465c-.317-.63-.476-1.373-.476-2.227 0-.845.159-1.585.476-2.22a3.584 3.584 0 0 1 1.34-1.494c.577-.357 1.256-.535 2.037-.535.504 0 .98.08 1.429.241a3.29 3.29 0 0 1 1.201.748c.352.337.628.766.828 1.289.2.518.3 1.136.3 1.853v.601h-6.71v-1.296h5.75l-.9.38c0-.463-.07-.866-.213-1.208a1.789 1.789 0 0 0-.63-.813c-.278-.196-.625-.293-1.04-.293-.415 0-.77.097-1.062.293a1.851 1.851 0 0 0-.667.791 2.584 2.584 0 0 0-.227 1.099v.901c0 .498.086.925.257 1.282.175.351.42.62.732.806.318.185.686.278 1.106.278.274 0 .523-.039.748-.117.23-.078.424-.196.586-.352a1.58 1.58 0 0 0 .38-.593l1.803.212a2.888 2.888 0 0 1-.652 1.246 3.125 3.125 0 0 1-1.209.82c-.488.19-1.05.286-1.685.286Zm4.681-.161v-8.191h1.868v1.378h.088c.147-.479.403-.845.77-1.099a2.117 2.117 0 0 1 1.252-.389c.103 0 .22.005.352.015.137.01.249.022.337.037v1.773a1.864 1.864 0 0 0-.388-.074 4.714 4.714 0 0 0-.506-.029c-.357 0-.674.076-.952.227a1.718 1.718 0 0 0-.66.623 1.773 1.773 0 0 0-.234.923v4.806h-1.927Zm12.49.168c-.85 0-1.587-.132-2.212-.396-.625-.263-1.113-.647-1.465-1.15-.352-.508-.542-1.123-.571-1.846h1.948c.03.381.147.699.352.953.205.249.474.437.806.564.337.127.71.19 1.12.19.43 0 .809-.066 1.136-.198.328-.132.584-.315.77-.549.185-.235.278-.508.278-.821 0-.283-.083-.515-.25-.696a1.95 1.95 0 0 0-.688-.468 6.508 6.508 0 0 0-1.033-.337l-1.238-.323c-.898-.229-1.607-.578-2.124-1.047-.518-.474-.777-1.104-.777-1.89 0-.645.174-1.207.52-1.685.347-.484.82-.86 1.421-1.128.606-.269 1.29-.403 2.052-.403.776 0 1.458.134 2.044.403.586.268 1.045.639 1.377 1.113a2.9 2.9 0 0 1 .52 1.634h-1.912c-.049-.469-.257-.831-.623-1.085-.361-.258-.837-.388-1.428-.388-.41 0-.765.061-1.063.183a1.54 1.54 0 0 0-.674.506 1.214 1.214 0 0 0-.234.732c0 .303.09.552.271.748.186.19.42.344.703.461.288.117.582.215.88.293l1.018.257c.41.097.806.229 1.186.395a4.12 4.12 0 0 1 1.026.616c.308.244.55.542.725.893.181.352.272.765.272 1.238 0 .635-.164 1.197-.491 1.685-.328.484-.799.862-1.414 1.136-.616.273-1.358.41-2.227.41Zm9.319-8.359v1.495h-4.696v-1.495h4.696Zm-3.546-1.948h1.927v7.677c0 .322.07.562.213.718.141.151.366.227.674.227.083 0 .175-.007.278-.022a3.57 3.57 0 0 0 .278-.051l.33 1.509a3.97 3.97 0 0 1-.623.139c-.21.034-.42.051-.63.051-.762 0-1.36-.2-1.795-.6-.434-.406-.652-.958-.652-1.656v-7.992Zm9.824 6.703v-4.755h1.927v8.191h-1.868v-1.458h-.088a2.494 2.494 0 0 1-.908 1.128c-.42.293-.938.437-1.553.432-.538 0-1.011-.117-1.422-.352a2.496 2.496 0 0 1-.959-1.047c-.23-.464-.345-1.023-.345-1.678v-5.216h1.927v4.923c0 .513.142.923.425 1.231.288.308.664.459 1.128.454.283 0 .557-.068.821-.205.268-.137.488-.342.659-.615.171-.274.256-.618.256-1.033Zm6.374 3.582c-.64 0-1.216-.164-1.729-.491-.508-.332-.908-.813-1.202-1.443-.293-.63-.439-1.394-.439-2.293 0-.913.149-1.682.447-2.308.303-.625.708-1.098 1.216-1.421a3.122 3.122 0 0 1 1.707-.483c.483 0 .879.08 1.187.241.307.162.551.357.732.587.186.224.327.434.425.63h.081v-4.081h1.919v10.916h-1.883v-1.297h-.117c-.103.2-.247.413-.432.637-.186.22-.432.41-.74.572-.308.156-.698.234-1.172.234Zm.535-1.582c.41 0 .757-.11 1.04-.33.288-.225.508-.535.659-.93.152-.401.227-.865.227-1.392 0-.533-.075-.994-.227-1.385-.146-.395-.364-.701-.652-.916-.283-.214-.632-.322-1.047-.322-.425 0-.782.112-1.07.337-.288.225-.505.535-.652.93a4.005 4.005 0 0 0-.212 1.356c0 .508.073.962.219 1.362.147.401.362.716.645.945.288.23.645.345 1.07.345Zm5.238 1.436v-8.191h1.926v8.191h-1.926Zm.967-9.341c-.308 0-.572-.102-.792-.308a.977.977 0 0 1-.329-.739c0-.293.11-.543.329-.748a1.12 1.12 0 0 1 .792-.307c.302 0 .564.102.783.307.22.205.33.452.33.74 0 .293-.11.542-.33.747a1.104 1.104 0 0 1-.783.308Zm5.955 9.502c-.801 0-1.494-.176-2.08-.528a3.57 3.57 0 0 1-1.363-1.48c-.317-.634-.476-1.372-.476-2.212 0-.845.159-1.585.476-2.22a3.57 3.57 0 0 1 1.363-1.487c.586-.351 1.279-.527 2.08-.527.801 0 1.495.176 2.081.527a3.57 3.57 0 0 1 1.363 1.487c.322.635.483 1.375.483 2.22 0 .84-.161 1.578-.483 2.212a3.57 3.57 0 0 1-1.363 1.48c-.586.352-1.28.528-2.081.528Zm0-1.553c.445 0 .811-.118 1.099-.352.288-.239.503-.562.645-.967.146-.405.22-.855.22-1.348 0-.503-.074-.957-.22-1.363-.142-.405-.357-.725-.645-.959-.288-.24-.654-.359-1.099-.359-.434 0-.798.119-1.091.359-.293.234-.513.554-.659.959-.142.406-.213.86-.213 1.363 0 .493.071.943.213 1.348.146.405.366.728.659.967.293.234.657.352 1.091.352Zm10.55 1.392-3.077-10.916h2.124l1.971 8.022h.095l2.103-8.022h1.941l2.088 8.029h.11l1.956-8.029h2.139l-3.084 10.916h-1.956l-2.183-7.649h-.088l-2.176 7.649h-1.963Zm15.076.161c-.82 0-1.529-.171-2.124-.513a3.507 3.507 0 0 1-1.378-1.465c-.317-.63-.476-1.373-.476-2.227 0-.845.159-1.585.476-2.22a3.59 3.59 0 0 1 1.341-1.494c.576-.357 1.255-.535 2.037-.535.503 0 .979.08 1.428.241.454.162.855.411 1.202.748.351.337.627.766.827 1.289.201.518.301 1.136.301 1.853v.601h-6.711v-1.296h5.751l-.901.38c0-.463-.071-.866-.213-1.208a1.78 1.78 0 0 0-.63-.813c-.278-.196-.625-.293-1.04-.293-.415 0-.769.097-1.062.293a1.856 1.856 0 0 0-.667.791 2.59 2.59 0 0 0-.227 1.099v.901c0 .498.086.925.257 1.282.175.351.42.62.732.806.318.185.686.278 1.106.278.274 0 .523-.039.748-.117.229-.078.425-.196.586-.352.166-.161.293-.359.381-.593l1.802.212a2.891 2.891 0 0 1-.652 1.246 3.131 3.131 0 0 1-1.209.82c-.488.19-1.05.286-1.685.286Zm9.025-.015c-.463 0-.852-.078-1.164-.234a2.54 2.54 0 0 1-.748-.572 3.252 3.252 0 0 1-.424-.637h-.118v1.297h-1.89V128.27h1.927v4.081h.081c.097-.196.236-.406.417-.63a2.24 2.24 0 0 1 .733-.587c.312-.161.71-.241 1.194-.241.63 0 1.199.161 1.707.483.508.323.911.796 1.208 1.421.303.626.455 1.395.455 2.308 0 .899-.147 1.663-.44 2.293-.293.63-.696 1.111-1.209 1.443a3.124 3.124 0 0 1-1.729.491Zm-.527-1.582c.425 0 .779-.115 1.062-.345.288-.229.506-.544.652-.945.147-.4.22-.854.22-1.362 0-.508-.073-.96-.22-1.356-.146-.395-.361-.705-.644-.93-.284-.225-.64-.337-1.07-.337-.415 0-.767.108-1.055.322-.283.215-.5.521-.652.916-.146.391-.22.852-.22 1.385 0 .527.074.991.22 1.392.152.395.371.705.659.93.289.22.638.33 1.048.33Zm11.436-4.579-1.751.183a1.413 1.413 0 0 0-.476-.71c-.245-.21-.589-.315-1.033-.315-.401 0-.738.088-1.011.263-.269.176-.403.401-.403.674 0 .24.088.437.263.594.181.151.479.273.894.366l1.399.293c.767.161 1.341.425 1.722.791.381.366.571.84.571 1.421 0 .513-.149.967-.446 1.363-.298.396-.711.703-1.239.923-.522.22-1.125.33-1.809.33-1.001 0-1.807-.21-2.418-.63-.605-.425-.969-1.014-1.091-1.766l1.883-.176c.083.367.263.645.542.835.283.186.644.279 1.084.279.459 0 .828-.093 1.106-.279.279-.19.418-.422.418-.695 0-.46-.367-.772-1.099-.938l-1.399-.293c-.787-.171-1.368-.447-1.744-.828-.376-.386-.564-.877-.564-1.472 0-.508.139-.948.418-1.319.278-.371.666-.659 1.164-.865.499-.205 1.075-.307 1.729-.307.962 0 1.717.207 2.264.622.552.411.894.963 1.026 1.656Zm1.216 6.015v-8.191h1.926v8.191h-1.926Zm.967-9.341c-.308 0-.572-.102-.792-.308a.977.977 0 0 1-.329-.739c0-.293.11-.543.329-.748a1.12 1.12 0 0 1 .792-.307c.302 0 .564.102.784.307a.979.979 0 0 1 .329.74c0 .293-.11.542-.329.747-.22.206-.482.308-.784.308Zm6.468 1.15v1.495h-4.695v-1.495h4.695Zm-3.545-1.948h1.926v7.677c0 .322.071.562.213.718.141.151.366.227.674.227.083 0 .176-.007.278-.022.103-.015.196-.032.279-.051l.329 1.509c-.205.063-.412.11-.622.139-.21.034-.42.051-.63.051-.762 0-1.361-.2-1.795-.6-.435-.406-.652-.958-.652-1.656v-7.992Zm8.146 10.3c-.821 0-1.529-.171-2.125-.513a3.51 3.51 0 0 1-1.377-1.465c-.317-.63-.476-1.373-.476-2.227 0-.845.159-1.585.476-2.22a3.59 3.59 0 0 1 1.341-1.494c.576-.357 1.255-.535 2.036-.535.503 0 .98.08 1.429.241.454.162.855.411 1.201.748.352.337.628.766.828 1.289.2.518.301 1.136.301 1.853v.601h-6.711v-1.296h5.751l-.901.38c0-.463-.071-.866-.213-1.208a1.78 1.78 0 0 0-.63-.813c-.278-.196-.625-.293-1.04-.293-.415 0-.769.097-1.062.293a1.856 1.856 0 0 0-.667.791 2.59 2.59 0 0 0-.227 1.099v.901c0 .498.086.925.256 1.282.176.351.421.62.733.806.318.185.686.278 1.106.278.274 0 .523-.039.748-.117.229-.078.424-.196.586-.352.166-.161.293-.359.381-.593l1.802.212a2.902 2.902 0 0 1-.652 1.246 3.131 3.131 0 0 1-1.209.82c-.488.19-1.05.286-1.685.286Zm11.633-.161h-2.769v-1.715h2.667c.757 0 1.389-.136 1.897-.41a2.612 2.612 0 0 0 1.15-1.253c.259-.556.389-1.252.389-2.088 0-.835-.127-1.528-.381-2.08a2.598 2.598 0 0 0-1.136-1.238c-.503-.278-1.126-.418-1.868-.418h-2.776v-1.714h2.893c1.085 0 2.015.217 2.791.652a4.397 4.397 0 0 1 1.803 1.876c.42.815.63 1.789.63 2.922 0 1.134-.21 2.11-.63 2.931a4.427 4.427 0 0 1-1.817 1.883c-.787.434-1.734.652-2.843.652Zm-1.729-10.916v10.916h-1.978V128.27h1.978Zm11.868 11.077c-.82 0-1.528-.171-2.124-.513a3.498 3.498 0 0 1-1.377-1.465c-.318-.63-.477-1.373-.477-2.227 0-.845.159-1.585.477-2.22a3.582 3.582 0 0 1 1.34-1.494c.576-.357 1.255-.535 2.037-.535.503 0 .979.08 1.428.241.454.162.855.411 1.202.748.351.337.627.766.828 1.289.2.518.3 1.136.3 1.853v.601h-6.711v-1.296h5.751l-.901.38c0-.463-.071-.866-.212-1.208a1.794 1.794 0 0 0-.63-.813c-.279-.196-.625-.293-1.041-.293-.415 0-.769.097-1.062.293a1.856 1.856 0 0 0-.667.791 2.59 2.59 0 0 0-.227 1.099v.901c0 .498.086.925.257 1.282.176.351.42.62.732.806.318.185.687.278 1.107.278.273 0 .522-.039.747-.117.229-.078.425-.196.586-.352.166-.161.293-.359.381-.593l1.802.212a2.891 2.891 0 0 1-.652 1.246 3.131 3.131 0 0 1-1.209.82c-.488.19-1.05.286-1.685.286Zm11.143-6.176-1.751.183a1.406 1.406 0 0 0-.476-.71c-.244-.21-.589-.315-1.033-.315-.401 0-.738.088-1.011.263-.269.176-.403.401-.403.674 0 .24.088.437.264.594.18.151.478.273.893.366l1.4.293c.766.161 1.34.425 1.721.791.381.366.572.84.572 1.421 0 .513-.149.967-.447 1.363-.298.396-.711.703-1.238.923-.523.22-1.126.33-1.81.33-1.001 0-1.807-.21-2.417-.63-.606-.425-.97-1.014-1.092-1.766l1.883-.176c.083.367.264.645.542.835.283.186.645.279 1.084.279.459 0 .828-.093 1.106-.279.279-.19.418-.422.418-.695 0-.46-.366-.772-1.099-.938l-1.399-.293c-.786-.171-1.368-.447-1.744-.828-.376-.386-.564-.877-.564-1.472 0-.508.139-.948.418-1.319.278-.371.666-.659 1.165-.865.498-.205 1.074-.307 1.729-.307.962 0 1.716.207 2.263.622.552.411.894.963 1.026 1.656Zm1.216 6.015v-8.191h1.927v8.191h-1.927Zm.967-9.341c-.308 0-.572-.102-.791-.308a.974.974 0 0 1-.33-.739c0-.293.11-.543.33-.748.219-.205.483-.307.791-.307.303 0 .564.102.784.307.22.205.329.452.329.74a.982.982 0 0 1-.329.747c-.22.206-.481.308-.784.308Zm5.934 12.579c-1.04 0-1.858-.203-2.454-.608-.596-.401-.98-.887-1.15-1.458l1.728-.425c.079.161.193.32.345.476.151.161.354.293.608.396.254.107.574.161.959.161.547 0 .999-.135 1.356-.403.361-.264.542-.696.542-1.297v-1.546h-.11a2.539 2.539 0 0 1-.425.608c-.19.206-.442.381-.755.528-.307.142-.698.212-1.172.212a3.336 3.336 0 0 1-1.707-.447c-.507-.297-.913-.742-1.216-1.333-.298-.591-.447-1.331-.447-2.22 0-.898.149-1.658.447-2.278.303-.62.711-1.091 1.224-1.414a3.157 3.157 0 0 1 1.714-.483c.479 0 .874.08 1.187.241.312.162.561.357.747.587.186.224.33.434.432.63h.103v-1.356h1.883v8.322c0 .699-.167 1.278-.499 1.737-.332.459-.788.801-1.37 1.025-.576.23-1.233.345-1.97.345Zm.014-4.872c.616 0 1.09-.22 1.422-.659.337-.445.505-1.058.505-1.839 0-.518-.073-.97-.22-1.355-.146-.386-.363-.687-.652-.902-.288-.214-.639-.322-1.055-.322-.429 0-.788.112-1.076.337a2.04 2.04 0 0 0-.652.923 3.806 3.806 0 0 0-.213 1.319c0 .498.073.935.22 1.311.146.376.364.669.652.879.293.205.649.308 1.069.308Zm7.172-3.158v4.792h-1.926v-8.191h1.89v1.4h.095a2.35 2.35 0 0 1 .872-1.092c.4-.274.908-.41 1.524-.41.566 0 1.059.119 1.479.359.42.239.745.591.975 1.055.234.459.351 1.015.351 1.67v5.209h-1.926v-4.909c0-.547-.142-.974-.425-1.282-.283-.312-.674-.469-1.172-.469-.337 0-.638.074-.901.22a1.586 1.586 0 0 0-.616.638c-.146.273-.22.61-.22 1.01Z"/><g filter="url(#s)"><path fill="url(#t)" fill-opacity=".1" d="M35.823 244.818a9.378 9.378 0 0 1 9.377-9.377h331.246a9.377 9.377 0 0 1 9.377 9.377v40.25a9.377 9.377 0 0 1-9.377 9.377H45.2a9.378 9.378 0 0 1-9.377-9.377v-40.25Z"/><path fill="url(#u)" fill-opacity=".1" d="M35.823 244.818a9.378 9.378 0 0 1 9.377-9.377h331.246a9.377 9.377 0 0 1 9.377 9.377v40.25a9.377 9.377 0 0 1-9.377 9.377H45.2a9.378 9.378 0 0 1-9.377-9.377v-40.25Z"/><path stroke="url(#v)" stroke-opacity=".3" stroke-width=".938" d="M36.292 244.818a8.909 8.909 0 0 1 8.908-8.908h331.246a8.908 8.908 0 0 1 8.908 8.908v40.25a8.908 8.908 0 0 1-8.908 8.908H45.2a8.909 8.909 0 0 1-8.908-8.908v-40.25Z"/><path stroke="url(#w)" stroke-opacity=".1" stroke-width=".938" d="M36.292 244.818a8.909 8.909 0 0 1 8.908-8.908h331.246a8.908 8.908 0 0 1 8.908 8.908v40.25a8.908 8.908 0 0 1-8.908 8.908H45.2a8.909 8.909 0 0 1-8.908-8.908v-40.25Z"/><g clip-path="url(#x)"><rect width="11" height="30" x="47.823" y="249.943" fill="#fff" fill-opacity=".1" rx="5.5"/><path fill="url(#y)" d="M47.823 249.943h11v30h-11z"/><g filter="url(#z)"><rect width="5.619" height="5.619" x="50.514" y="264.426" fill="#fff" rx="2.81"/></g></g><path fill="#fff" d="M71.182 260.255v10.188h-1.538v-10.188h1.538Zm4.745 10.346c-.734 0-1.367-.169-1.9-.506a3.338 3.338 0 0 1-1.231-1.395c-.287-.593-.43-1.272-.43-2.038 0-.779.145-1.465.437-2.058a3.385 3.385 0 0 1 1.237-1.395c.534-.337 1.158-.506 1.874-.506.583 0 1.1.107 1.552.322a2.717 2.717 0 0 1 1.6 2.249h-1.45a1.709 1.709 0 0 0-.294-.663 1.513 1.513 0 0 0-.56-.479 1.807 1.807 0 0 0-.828-.177c-.415 0-.777.109-1.087.328-.305.214-.545.522-.718.923-.173.401-.26.875-.26 1.422 0 .552.085 1.032.253 1.443.169.41.408.727.718.95.315.219.68.328 1.094.328.429 0 .793-.118 1.094-.355.306-.237.502-.561.588-.971h1.45a2.77 2.77 0 0 1-.479 1.326 2.798 2.798 0 0 1-1.08.917c-.451.223-.978.335-1.58.335Zm7.399 0c-.716 0-1.343-.164-1.88-.493a3.324 3.324 0 0 1-1.245-1.381c-.292-.592-.438-1.281-.438-2.065 0-.793.146-1.486.438-2.078a3.313 3.313 0 0 1 1.244-1.388c.538-.329 1.165-.493 1.88-.493.72 0 1.348.164 1.88.493.534.328.95.79 1.245 1.388.297.592.445 1.285.445 2.078 0 .784-.148 1.473-.445 2.065a3.324 3.324 0 0 1-1.244 1.381c-.533.329-1.16.493-1.88.493Zm0-1.252c.47 0 .857-.123 1.162-.369.305-.246.531-.572.677-.978.15-.41.226-.857.226-1.34 0-.492-.076-.943-.226-1.354a2.159 2.159 0 0 0-.677-.984c-.305-.246-.693-.369-1.162-.369-.465 0-.85.123-1.156.369a2.23 2.23 0 0 0-.677.984 3.91 3.91 0 0 0-.225 1.354c0 .483.075.93.225 1.34.15.406.376.732.677.978.305.246.69.369 1.156.369Zm6.12-3.439v4.533h-1.478v-7.644h1.436v1.258h.103c.173-.415.444-.743.813-.984.37-.247.844-.37 1.423-.37.52 0 .973.11 1.36.328.392.215.695.536.91.965.218.428.328.959.328 1.593v4.854h-1.477v-4.677c0-.551-.146-.984-.438-1.299-.291-.319-.688-.478-1.19-.478-.341 0-.649.077-.922.232-.27.151-.481.367-.636.65-.155.282-.233.629-.233 1.039Zm13.797 4.67c-.875 0-1.659-.21-2.352-.629-.693-.419-1.237-1.019-1.634-1.798-.397-.784-.595-1.716-.595-2.797 0-1.089.198-2.024.595-2.803.401-.784.946-1.386 1.634-1.805.693-.42 1.477-.629 2.352-.629.538 0 1.042.077 1.511.232.474.155.898.381 1.272.677.374.296.682.659.923 1.087.246.429.411.914.493 1.457h-1.546a2.324 2.324 0 0 0-.335-.876 2.282 2.282 0 0 0-.595-.642 2.407 2.407 0 0 0-.786-.397 3.017 3.017 0 0 0-.916-.137c-.584 0-1.11.149-1.58.445-.465.292-.832.725-1.1 1.299-.265.57-.397 1.267-.397 2.092 0 .83.134 1.53.403 2.099.269.566.636.994 1.101 1.286.465.292.987.437 1.566.437.324 0 .629-.043.916-.129a2.61 2.61 0 0 0 .787-.39 2.355 2.355 0 0 0 .936-1.498h1.546a4.045 4.045 0 0 1-.472 1.388c-.237.415-.54.775-.91 1.081-.369.301-.79.535-1.265.704a4.716 4.716 0 0 1-1.552.246Zm6.824-4.67v4.533h-1.477v-10.188h1.457v3.802h.102a2.18 2.18 0 0 1 .814-.984c.369-.247.85-.37 1.443-.37.524 0 .982.107 1.374.322.392.214.697.535.916.964.224.428.335.962.335 1.6v4.854h-1.49v-4.677c0-.565-.146-1.002-.438-1.312-.287-.31-.688-.465-1.203-.465-.356 0-.67.077-.944.232-.273.151-.49.367-.65.65-.159.282-.239.629-.239 1.039Zm8.602 4.697a3.14 3.14 0 0 1-1.313-.266 2.204 2.204 0 0 1-.93-.793c-.228-.347-.342-.768-.342-1.265 0-.433.082-.787.246-1.06.169-.278.395-.499.677-.663.283-.164.597-.288.944-.37.346-.082.702-.145 1.067-.191.46-.05.831-.093 1.114-.13.283-.036.488-.093.615-.171.133-.082.199-.212.199-.39v-.034c0-.433-.123-.768-.37-1.005-.241-.237-.601-.355-1.08-.355-.497 0-.891.109-1.183.328-.287.214-.485.458-.595.731l-1.401-.321c.168-.465.412-.839.731-1.121a3.03 3.03 0 0 1 1.108-.629 4.315 4.315 0 0 1 1.313-.199c.305 0 .629.037.971.11.342.068.663.198.964.389.305.187.554.456.745.807.192.351.287.805.287 1.361v5.073h-1.456v-1.046h-.055a2.01 2.01 0 0 1-.431.561 2.264 2.264 0 0 1-.738.465c-.301.123-.663.184-1.087.184Zm.321-1.189c.415 0 .768-.08 1.06-.24a1.75 1.75 0 0 0 .67-.642 1.64 1.64 0 0 0 .233-.841v-.992c-.055.05-.158.098-.308.144a4.281 4.281 0 0 1-.513.116c-.191.032-.378.062-.561.089-.182.023-.335.041-.458.055a3.866 3.866 0 0 0-.786.191 1.328 1.328 0 0 0-.574.369c-.142.16-.212.372-.212.636 0 .369.136.648.41.834.273.187.62.281 1.039.281Zm6.352-3.508v4.533h-1.477v-7.644h1.436v1.258h.103c.173-.415.444-.743.813-.984.37-.247.844-.37 1.423-.37.519 0 .973.11 1.36.328.392.215.695.536.91.965.218.428.328.959.328 1.593v4.854h-1.477v-4.677c0-.551-.146-.984-.438-1.299-.291-.319-.688-.478-1.189-.478-.342 0-.65.077-.923.232a1.618 1.618 0 0 0-.636.65c-.155.282-.233.629-.233 1.039Zm9.504 7.556c-.911 0-1.629-.171-2.153-.513-.525-.342-.887-.748-1.088-1.217l1.272-.527c.091.146.212.301.363.465.155.164.362.303.622.417.26.114.595.171 1.005.171.561 0 1.026-.137 1.395-.41.369-.269.554-.702.554-1.299v-1.498h-.103c-.082.16-.207.34-.376.541a2.188 2.188 0 0 1-.691.512c-.291.146-.672.219-1.142.219a3.16 3.16 0 0 1-1.627-.424c-.478-.287-.861-.706-1.149-1.258-.282-.556-.423-1.24-.423-2.051 0-.812.139-1.507.417-2.086.282-.583.665-1.03 1.148-1.34a2.989 2.989 0 0 1 1.648-.465c.474 0 .857.08 1.149.24.296.155.526.337.69.547.165.209.292.394.383.553h.11v-1.244h1.442v7.815c0 .657-.152 1.195-.458 1.614-.3.419-.711.729-1.23.93-.52.205-1.106.308-1.758.308Zm-.013-4.376c.642 0 1.135-.222 1.477-.664.346-.446.519-1.064.519-1.853 0-.515-.075-.966-.225-1.354-.151-.392-.374-.697-.67-.916-.297-.223-.664-.335-1.101-.335-.447 0-.821.116-1.122.349-.296.228-.519.54-.67.937-.15.392-.225.832-.225 1.319 0 .497.075.937.225 1.32.151.378.376.672.677.882.306.21.677.315 1.115.315Zm8.171 1.511c-.748 0-1.395-.162-1.942-.486a3.243 3.243 0 0 1-1.265-1.367c-.292-.593-.438-1.284-.438-2.072 0-.784.144-1.475.431-2.072.292-.597.7-1.062 1.224-1.395.529-.337 1.149-.506 1.86-.506.433 0 .852.071 1.258.212.405.142.77.365 1.094.67.323.306.579.702.766 1.19.191.488.287 1.076.287 1.764v.533H140.2v-1.114h5.313l-.691.369c0-.469-.073-.884-.218-1.244a1.817 1.817 0 0 0-.657-.841c-.287-.205-.645-.308-1.073-.308-.429 0-.796.103-1.101.308a2.003 2.003 0 0 0-.691.813 2.57 2.57 0 0 0-.239 1.108v.759c0 .524.091.969.273 1.333.183.365.436.643.759.835.329.191.709.287 1.142.287.283 0 .538-.041.766-.123.232-.082.433-.205.602-.37a1.59 1.59 0 0 0 .383-.608l1.408.267c-.114.41-.314.77-.602 1.08-.287.31-.649.551-1.087.725a4.076 4.076 0 0 1-1.483.253Zm10.03-5.929-1.347.233a1.675 1.675 0 0 0-.485-.704c-.233-.215-.581-.322-1.046-.322-.42 0-.771.096-1.053.288-.278.186-.417.426-.417.717a.78.78 0 0 0 .28.623c.191.159.494.287.909.383l1.224.273c.698.16 1.22.41 1.566.752.346.342.52.78.52 1.313 0 .46-.133.871-.397 1.231-.264.355-.631.636-1.101.841-.469.2-1.012.301-1.627.301-.857 0-1.555-.185-2.092-.554-.538-.369-.869-.889-.992-1.559l1.429-.219c.091.374.276.656.554.848.283.191.647.287 1.094.287.483 0 .871-.103 1.162-.308.297-.205.445-.453.445-.745 0-.483-.36-.809-1.08-.978l-1.293-.287c-.715-.164-1.244-.422-1.586-.773-.337-.355-.506-.802-.506-1.34 0-.451.125-.848.376-1.189a2.472 2.472 0 0 1 1.046-.794c.447-.191.955-.287 1.525-.287.83 0 1.479.18 1.949.54.474.361.788.837.943 1.429Z"/><rect width="50.879" height="25.502" x="159.823" y="252.193" fill="#fff" fill-opacity=".1" rx="12.751"/><rect width="49.941" height="24.564" x="160.292" y="252.662" stroke="#fff" stroke-opacity=".12" stroke-width=".938" rx="12.282"/><path fill="#fff" d="M168.858 268.943v-.964l3-3.119c.317-.333.579-.627.786-.881.21-.258.367-.502.47-.732.107-.23.16-.474.16-.732 0-.298-.069-.554-.208-.768a1.37 1.37 0 0 0-.565-.494 1.839 1.839 0 0 0-.81-.173c-.317 0-.593.066-.827.197a1.345 1.345 0 0 0-.548.548c-.127.234-.19.509-.19.827h-1.274c0-.54.123-1.012.369-1.417a2.54 2.54 0 0 1 1.024-.94 3.16 3.16 0 0 1 1.476-.339c.559 0 1.051.111 1.476.333.425.222.756.524.994.905.238.377.357.803.357 1.279 0 .33-.061.651-.184.965-.119.313-.332.664-.637 1.053a16.72 16.72 0 0 1-1.262 1.393l-1.762 1.845v.072h3.988v1.142h-5.833Zm10.047.119c-.682 0-1.268-.178-1.756-.535-.484-.357-.855-.873-1.113-1.548-.254-.678-.381-1.5-.381-2.464 0-.96.129-1.78.387-2.458.258-.683.629-1.203 1.113-1.56.488-.361 1.072-.541 1.75-.541.683 0 1.266.18 1.75.541.488.357.859.877 1.113 1.56.258.678.387 1.498.387 2.458 0 .964-.127 1.786-.381 2.464-.254.675-.623 1.191-1.107 1.548s-1.071.535-1.762.535Zm0-1.142a1.49 1.49 0 0 0 1.054-.399c.286-.266.504-.653.655-1.161.15-.512.226-1.127.226-1.845 0-.722-.076-1.337-.226-1.845-.151-.512-.369-.901-.655-1.167a1.477 1.477 0 0 0-1.054-.405c-.615 0-1.091.3-1.428.899-.334.595-.5 1.435-.5 2.518 0 .718.075 1.333.226 1.845.151.508.369.895.655 1.161.289.266.639.399 1.047.399Zm4.941 1.107a.855.855 0 0 1-.869-.863c0-.242.083-.447.25-.613a.851.851 0 0 1 .619-.25c.242 0 .446.083.613.25.17.166.256.371.256.613a.827.827 0 0 1-.256.613.837.837 0 0 1-.613.25Zm4.928.035c-.682 0-1.268-.178-1.756-.535-.484-.357-.855-.873-1.113-1.548-.254-.678-.381-1.5-.381-2.464 0-.96.129-1.78.387-2.458.258-.683.629-1.203 1.113-1.56.488-.361 1.071-.541 1.75-.541.683 0 1.266.18 1.75.541.488.357.859.877 1.113 1.56.258.678.387 1.498.387 2.458 0 .964-.127 1.786-.381 2.464-.254.675-.623 1.191-1.107 1.548s-1.072.535-1.762.535Zm0-1.142a1.49 1.49 0 0 0 1.054-.399c.285-.266.504-.653.654-1.161.151-.512.227-1.127.227-1.845 0-.722-.076-1.337-.227-1.845-.15-.512-.369-.901-.654-1.167a1.477 1.477 0 0 0-1.054-.405c-.615 0-1.091.3-1.429.899-.333.595-.499 1.435-.499 2.518 0 .718.075 1.333.226 1.845.15.508.369.895.654 1.161.29.266.639.399 1.048.399Zm8.916-.643v-.465c0-.337.07-.644.209-.922.139-.278.343-.5.613-.667.27-.17.597-.256.982-.256.393 0 .722.084.988.25.266.167.466.391.601.673.135.278.203.585.203.922v.465c0 .337-.07.647-.209.928-.135.278-.335.5-.601.667-.266.167-.593.25-.982.25s-.718-.083-.988-.25a1.627 1.627 0 0 1-.613-.667 2.117 2.117 0 0 1-.203-.928Zm1.006-.465v.465c0 .25.06.476.179.678.119.203.325.304.619.304.29 0 .492-.101.607-.304.115-.202.173-.428.173-.678v-.465c0-.25-.056-.474-.167-.672-.111-.203-.315-.304-.613-.304-.29 0-.496.101-.619.304a1.28 1.28 0 0 0-.179.672Zm-5.464-4.607v-.464c0-.337.07-.645.209-.922.142-.282.347-.506.613-.673.269-.167.595-.25.976-.25.393 0 .722.083.988.25.27.167.472.391.607.673.135.277.2.585.196.922v.464c.004.334-.063.641-.202.923a1.68 1.68 0 0 1-.607.673c-.266.166-.593.25-.982.25s-.718-.084-.988-.25a1.68 1.68 0 0 1-.607-.673 2.108 2.108 0 0 1-.203-.923Zm1.006-.464v.464c0 .25.06.477.179.679.119.202.323.302.613.298.293.004.498-.096.613-.298a1.35 1.35 0 0 0 .173-.679v-.464c0-.25-.056-.476-.167-.678-.111-.203-.318-.302-.619-.298-.286-.004-.49.095-.613.298a1.311 1.311 0 0 0-.179.678Zm-.595 7.202 6.095-8.868h1.036l-6.095 8.868h-1.036Z"/><rect width="87" height="35.003" x="286.823" y="247.441" fill="#fff" fill-opacity=".07" rx="7.63"/><rect width="86.062" height="34.066" x="287.292" y="247.91" stroke="#fff" stroke-opacity=".1" stroke-width=".938" rx="7.161"/><path fill="#9297A0" d="M295.908 269.943h-1.532l3.436-9.551h1.667l3.429 9.551h-1.525l-2.705-7.814h-.077l-2.693 7.814Zm.257-3.737h4.955v1.205h-4.955v-1.205Zm12.75-1.673-1.263.218a1.579 1.579 0 0 0-.455-.66c-.218-.201-.545-.301-.981-.301-.393 0-.722.089-.987.269-.261.175-.391.399-.391.673 0 .239.087.434.263.583.179.15.463.27.852.359l1.147.257c.654.149 1.144.384 1.468.705.325.32.488.731.488 1.23 0 .432-.124.817-.372 1.154-.248.334-.592.596-1.032.789-.44.188-.949.282-1.526.282-.803 0-1.457-.173-1.961-.519-.505-.347-.814-.834-.93-1.462l1.34-.205c.085.35.258.615.519.795.265.179.607.269 1.026.269.453 0 .816-.096 1.089-.288.278-.193.417-.426.417-.699 0-.453-.337-.759-1.013-.917l-1.211-.269c-.671-.154-1.167-.395-1.487-.724-.317-.334-.475-.752-.475-1.257 0-.423.118-.795.353-1.115.239-.321.566-.568.981-.744a3.602 3.602 0 0 1 1.429-.269c.778 0 1.387.169 1.827.507.444.337.739.784.885 1.339Zm6.474 0-1.263.218a1.579 1.579 0 0 0-.455-.66c-.218-.201-.545-.301-.981-.301-.393 0-.722.089-.987.269-.261.175-.391.399-.391.673a.73.73 0 0 0 .263.583c.179.15.463.27.852.359l1.148.257c.653.149 1.143.384 1.468.705.324.32.487.731.487 1.23 0 .432-.124.817-.372 1.154-.248.334-.592.596-1.032.789-.44.188-.949.282-1.526.282-.803 0-1.457-.173-1.961-.519-.504-.347-.814-.834-.93-1.462l1.34-.205c.086.35.259.615.519.795.265.179.607.269 1.026.269.453 0 .816-.096 1.09-.288.277-.193.416-.426.416-.699 0-.453-.337-.759-1.013-.917l-1.211-.269c-.671-.154-1.167-.395-1.487-.724-.316-.334-.474-.752-.474-1.257 0-.423.117-.795.352-1.115.239-.321.566-.568.981-.744a3.605 3.605 0 0 1 1.429-.269c.778 0 1.387.169 1.827.507.445.337.739.784.885 1.339Zm1.115 5.41v-7.166h1.385v7.166h-1.385Zm.699-8.269a.87.87 0 0 1-.622-.243.778.778 0 0 1-.256-.584c0-.23.085-.427.256-.589a.867.867 0 0 1 .622-.244.86.86 0 0 1 .615.244.775.775 0 0 1 .263.589.77.77 0 0 1-.263.584.863.863 0 0 1-.615.243Zm5.006 11.103c-.855 0-1.528-.161-2.019-.481-.492-.321-.831-.701-1.019-1.141l1.192-.494c.085.137.199.282.34.436.145.154.339.284.583.391.244.107.558.16.942.16.526 0 .962-.128 1.308-.384.346-.252.519-.658.519-1.218v-1.404h-.096a2.81 2.81 0 0 1-.353.507 2.037 2.037 0 0 1-.647.48c-.273.137-.63.205-1.07.205a2.964 2.964 0 0 1-1.526-.397c-.449-.269-.808-.662-1.077-1.179-.265-.522-.397-1.163-.397-1.924 0-.76.13-1.412.391-1.955.265-.547.624-.965 1.077-1.256a2.793 2.793 0 0 1 1.544-.436c.445 0 .804.075 1.077.225.278.145.494.316.648.512.154.197.273.37.359.52h.102v-1.167h1.353v7.327c0 .615-.143 1.119-.43 1.512a2.47 2.47 0 0 1-1.154.872 4.46 4.46 0 0 1-1.647.289Zm-.013-4.103c.603 0 1.064-.207 1.385-.622.325-.418.487-.997.487-1.737 0-.483-.071-.906-.212-1.269a1.867 1.867 0 0 0-.628-.859c-.278-.209-.622-.314-1.032-.314-.419 0-.769.109-1.051.327a1.946 1.946 0 0 0-.628.878c-.141.368-.212.78-.212 1.237 0 .466.071.878.212 1.237.141.355.352.631.634.827.287.197.635.295 1.045.295Zm5.962-2.981v4.25h-1.385v-7.166h1.346v1.179h.096c.163-.389.417-.696.763-.923.346-.23.791-.346 1.333-.346.488 0 .913.103 1.276.308.367.201.652.502.853.904.205.401.307.899.307 1.493v4.551h-1.384v-4.384c0-.517-.137-.923-.411-1.218-.273-.299-.645-.449-1.115-.449-.32 0-.609.073-.865.218a1.513 1.513 0 0 0-.596.609c-.146.265-.218.59-.218.974Zm12.179-2.916v1.122h-3.91v-1.122h3.91Zm-2.866-1.705h1.391v6.769c0 .329.069.57.206.724.136.15.356.225.66.225a2.402 2.402 0 0 0 .487-.052l.263 1.154a3.23 3.23 0 0 1-.962.148c-.619 0-1.115-.174-1.487-.52-.372-.35-.558-.816-.558-1.397v-7.051Zm6.795 9.019c-.671 0-1.258-.154-1.763-.462a3.107 3.107 0 0 1-1.166-1.295c-.274-.555-.411-1.2-.411-1.935 0-.744.137-1.394.411-1.949a3.1 3.1 0 0 1 1.166-1.301c.505-.308 1.092-.462 1.763-.462.675 0 1.263.154 1.763.462.5.307.889.741 1.167 1.301.277.555.416 1.205.416 1.949 0 .735-.139 1.38-.416 1.935a3.116 3.116 0 0 1-1.167 1.295c-.5.308-1.088.462-1.763.462Zm0-1.173c.44 0 .804-.116 1.09-.346.286-.231.498-.537.634-.917.141-.385.212-.803.212-1.256 0-.462-.071-.885-.212-1.27a2.026 2.026 0 0 0-.634-.923c-.286-.23-.65-.346-1.09-.346-.436 0-.797.116-1.083.346a2.098 2.098 0 0 0-.635.923 3.667 3.667 0 0 0-.211 1.27c0 .453.07.871.211 1.256.141.38.353.686.635.917.286.23.647.346 1.083.346Z"/><g clip-path="url(#A)"><path fill="#fff" d="M358.94 262.918a.694.694 0 0 0-1.174.495.694.694 0 0 0 .191.488l2.982 2.982a.997.997 0 0 0 .695.288.993.993 0 0 0 .694-.288l2.981-2.982a.699.699 0 0 0 .192-.488.693.693 0 0 0-1.175-.495l-2.693 2.691-2.693-2.691Z"/></g></g><g filter="url(#B)"><path fill="url(#C)" fill-opacity=".1" d="M35.823 313.82a9.378 9.378 0 0 1 9.377-9.377h331.246a9.377 9.377 0 0 1 9.377 9.377v40.25a9.377 9.377 0 0 1-9.377 9.377H45.2a9.378 9.378 0 0 1-9.377-9.377v-40.25Z"/><path fill="url(#D)" fill-opacity=".1" d="M35.823 313.82a9.378 9.378 0 0 1 9.377-9.377h331.246a9.377 9.377 0 0 1 9.377 9.377v40.25a9.377 9.377 0 0 1-9.377 9.377H45.2a9.378 9.378 0 0 1-9.377-9.377v-40.25Z"/><path stroke="url(#E)" stroke-opacity=".3" stroke-width=".938" d="M36.292 313.82a8.909 8.909 0 0 1 8.908-8.908h331.246a8.908 8.908 0 0 1 8.908 8.908v40.25a8.908 8.908 0 0 1-8.908 8.908H45.2a8.909 8.909 0 0 1-8.908-8.908v-40.25Z"/><path stroke="url(#F)" stroke-opacity=".1" stroke-width=".938" d="M36.292 313.82a8.909 8.909 0 0 1 8.908-8.908h331.246a8.908 8.908 0 0 1 8.908 8.908v40.25a8.908 8.908 0 0 1-8.908 8.908H45.2a8.909 8.909 0 0 1-8.908-8.908v-40.25Z"/><g clip-path="url(#G)"><rect width="11" height="30" x="47.823" y="318.945" fill="#fff" fill-opacity=".1" rx="5.5"/><path fill="url(#H)" d="M47.823 318.945h11v30h-11z"/><g filter="url(#I)"><rect width="5.619" height="5.619" x="50.514" y="340.326" fill="#fff" rx="2.81"/></g></g><path fill="#fff" d="M73.897 339.582c-.876 0-1.66-.21-2.352-.629-.693-.419-1.238-1.019-1.635-1.798-.396-.784-.594-1.716-.594-2.797 0-1.089.198-2.024.594-2.803.401-.784.946-1.386 1.635-1.805.692-.42 1.477-.629 2.352-.629.538 0 1.041.077 1.51.232.475.155.899.381 1.273.677.373.296.681.659.923 1.087.246.429.41.914.492 1.457H76.55a2.325 2.325 0 0 0-.335-.876 2.288 2.288 0 0 0-.595-.642 2.415 2.415 0 0 0-.787-.397 3.016 3.016 0 0 0-.916-.137c-.583 0-1.11.148-1.58.445-.464.292-.831.725-1.1 1.299-.264.57-.397 1.267-.397 2.092 0 .83.135 1.53.404 2.099.269.566.636.994 1.1 1.286.466.292.987.437 1.566.437.324 0 .63-.043.917-.13.287-.086.549-.216.786-.389a2.368 2.368 0 0 0 .937-1.498h1.545a4.032 4.032 0 0 1-.472 1.388c-.237.415-.54.775-.91 1.081-.368.3-.79.535-1.264.704a4.719 4.719 0 0 1-1.552.246Zm8.553.021c-.715 0-1.342-.165-1.88-.493a3.324 3.324 0 0 1-1.244-1.381c-.292-.592-.438-1.281-.438-2.065 0-.793.146-1.486.438-2.078a3.313 3.313 0 0 1 1.244-1.388c.538-.329 1.165-.493 1.88-.493.72 0 1.347.164 1.88.493.534.328.949.79 1.245 1.388.296.592.445 1.285.445 2.078 0 .784-.148 1.473-.445 2.065a3.324 3.324 0 0 1-1.244 1.381c-.534.328-1.16.493-1.88.493Zm0-1.252c.47 0 .857-.123 1.163-.369.305-.246.53-.572.677-.978.15-.41.225-.857.225-1.34 0-.492-.075-.943-.225-1.354a2.159 2.159 0 0 0-.677-.984c-.306-.246-.693-.369-1.163-.369-.465 0-.85.123-1.155.369a2.23 2.23 0 0 0-.677.984 3.91 3.91 0 0 0-.226 1.354c0 .483.076.93.226 1.34.15.406.376.732.677.978.305.246.69.369 1.155.369Zm6.12-3.439v4.533h-1.477v-7.644h1.436v1.258h.103a2.13 2.13 0 0 1 .813-.985c.37-.246.844-.369 1.422-.369.52 0 .974.11 1.361.328.392.215.695.536.91.965.218.428.328.959.328 1.593v4.854h-1.477v-4.677c0-.551-.146-.984-.438-1.299-.292-.319-.688-.478-1.19-.478-.341 0-.65.077-.923.232-.269.151-.48.367-.636.65-.155.282-.232.629-.232 1.039Zm9.873-3.111v1.197h-4.17v-1.197h4.17Zm-3.056-1.819h1.484v7.221c0 .351.073.608.219.772.145.16.38.24.704.24a2.87 2.87 0 0 0 .52-.055l.28 1.231c-.15.05-.315.089-.492.116a3.547 3.547 0 0 1-.534.041c-.66 0-1.19-.185-1.586-.554-.397-.374-.595-.871-.595-1.491v-7.521Zm7.33 9.621c-.748 0-1.395-.162-1.942-.486a3.25 3.25 0 0 1-1.265-1.367c-.292-.593-.438-1.284-.438-2.072 0-.784.144-1.475.431-2.072.292-.597.7-1.062 1.224-1.395.529-.337 1.149-.506 1.86-.506.433 0 .852.071 1.258.212.406.142.77.365 1.094.67.324.306.579.702.766 1.19.191.488.287 1.076.287 1.764v.533h-6.079v-1.114h5.313l-.69.369c0-.469-.073-.884-.219-1.244a1.817 1.817 0 0 0-.657-.841c-.287-.205-.645-.308-1.073-.308-.429 0-.795.103-1.101.308a1.993 1.993 0 0 0-.69.813c-.16.338-.24.707-.24 1.108v.759c0 .524.091.969.274 1.333.182.365.435.643.759.834.328.192.708.288 1.142.288.282 0 .537-.041.765-.123a1.579 1.579 0 0 0 .985-.978l1.408.266a2.584 2.584 0 0 1-.601 1.081c-.287.31-.65.551-1.087.725a4.082 4.082 0 0 1-1.484.253Zm5.791-4.691v4.533h-1.477v-7.644h1.436v1.258h.103a2.13 2.13 0 0 1 .813-.985c.37-.246.844-.369 1.423-.369.519 0 .973.11 1.36.328.392.215.695.536.91.965.218.428.328.959.328 1.593v4.854h-1.477v-4.677c0-.551-.146-.984-.438-1.299-.291-.319-.688-.478-1.189-.478-.342 0-.65.077-.923.232a1.618 1.618 0 0 0-.636.65c-.155.282-.233.629-.233 1.039Zm9.874-3.111v1.197h-4.171v-1.197h4.171Zm-3.057-1.819h1.484v7.221c0 .351.073.608.219.772.146.16.38.24.704.24a2.876 2.876 0 0 0 .52-.055l.28 1.231c-.15.05-.314.089-.492.116a3.557 3.557 0 0 1-.534.041c-.661 0-1.189-.185-1.586-.554-.396-.374-.595-.871-.595-1.491v-7.521Zm11.604 9.6c-.876 0-1.66-.21-2.353-.629-.692-.419-1.237-1.019-1.634-1.798-.396-.784-.595-1.716-.595-2.797 0-1.089.199-2.024.595-2.803.401-.784.946-1.386 1.634-1.805.693-.42 1.477-.629 2.353-.629.537 0 1.041.077 1.511.232.474.155.898.381 1.271.677.374.296.682.659.923 1.087.247.429.411.914.493 1.457h-1.546a2.307 2.307 0 0 0-.335-.876 2.279 2.279 0 0 0-.594-.642 2.422 2.422 0 0 0-.787-.397 3.012 3.012 0 0 0-.916-.137 2.89 2.89 0 0 0-1.579.445c-.465.292-.832.725-1.101 1.299-.265.57-.397 1.267-.397 2.092 0 .83.135 1.53.404 2.099.269.566.635.994 1.1 1.286.465.292.987.437 1.566.437.324 0 .629-.043.916-.13.288-.086.55-.216.787-.389.237-.173.435-.383.595-.629.164-.251.278-.54.341-.869h1.546a4.045 4.045 0 0 1-.472 1.388c-.237.415-.54.775-.909 1.081-.37.3-.791.535-1.265.704a4.72 4.72 0 0 1-1.552.246Zm6.823-4.67v4.533h-1.477v-10.188h1.457v3.802h.102c.178-.415.449-.743.814-.985.369-.246.85-.369 1.443-.369.524 0 .982.107 1.374.322a2.2 2.2 0 0 1 .916.964c.224.428.335.962.335 1.6v4.854h-1.49v-4.677c0-.565-.146-1.002-.438-1.312-.287-.31-.688-.465-1.203-.465-.356 0-.67.077-.944.232a1.65 1.65 0 0 0-.649.65c-.16.282-.24.629-.24 1.039Zm8.602 4.697a3.14 3.14 0 0 1-1.313-.266 2.204 2.204 0 0 1-.93-.793c-.228-.347-.342-.768-.342-1.265 0-.433.082-.787.247-1.06.168-.278.394-.499.676-.663.283-.165.598-.288.944-.37.346-.082.702-.145 1.067-.191.46-.05.832-.094 1.114-.13.283-.036.488-.093.616-.171.132-.082.198-.212.198-.39v-.034c0-.433-.123-.768-.369-1.005-.242-.237-.602-.356-1.081-.356-.497 0-.891.11-1.183.329-.287.214-.485.458-.594.731l-1.402-.321c.169-.465.412-.839.731-1.121a3.03 3.03 0 0 1 1.108-.629 4.32 4.32 0 0 1 1.313-.199c.305 0 .629.037.971.11.342.068.663.198.964.389.305.187.554.456.745.807.192.351.287.805.287 1.361v5.073h-1.456v-1.046h-.055a2.005 2.005 0 0 1-.43.561 2.28 2.28 0 0 1-.739.465c-.301.123-.663.184-1.087.184Zm.321-1.189c.415 0 .768-.08 1.06-.24a1.75 1.75 0 0 0 .67-.642 1.64 1.64 0 0 0 .233-.841v-.992c-.055.05-.158.098-.308.144-.15.045-.321.084-.513.116-.191.032-.378.062-.56.089-.183.023-.336.041-.459.055a3.866 3.866 0 0 0-.786.191 1.334 1.334 0 0 0-.574.369c-.142.16-.212.372-.212.636 0 .369.137.647.41.834.274.187.62.281 1.039.281Zm6.352-3.508v4.533h-1.477v-7.644h1.436v1.258h.103c.173-.415.444-.743.814-.985.369-.246.843-.369 1.422-.369.519 0 .973.11 1.36.328.392.215.696.536.91.965.219.428.328.959.328 1.593v4.854h-1.477v-4.677c0-.551-.146-.984-.437-1.299-.292-.319-.689-.478-1.19-.478-.342 0-.65.077-.923.232a1.618 1.618 0 0 0-.636.65c-.155.282-.233.629-.233 1.039Zm9.505 7.555c-.912 0-1.63-.17-2.154-.512-.524-.342-.887-.748-1.087-1.217l1.271-.527c.092.146.212.301.363.465.155.164.362.303.622.417.26.114.595.171 1.005.171.561 0 1.026-.137 1.395-.41.369-.269.554-.702.554-1.299v-1.498h-.103c-.082.16-.207.34-.376.54a2.196 2.196 0 0 1-.69.513c-.292.146-.673.219-1.142.219a3.163 3.163 0 0 1-1.628-.424c-.478-.287-.861-.706-1.148-1.258-.283-.556-.424-1.24-.424-2.051 0-.812.139-1.507.417-2.086.282-.583.665-1.03 1.149-1.34a2.983 2.983 0 0 1 1.647-.465c.474 0 .857.08 1.149.24.296.155.527.337.691.547.164.209.291.394.383.553h.109v-1.244h1.443v7.815c0 .657-.153 1.195-.458 1.614a2.655 2.655 0 0 1-1.231.93c-.52.205-1.106.307-1.757.307Zm-.014-4.376c.643 0 1.135-.221 1.477-.663.346-.446.519-1.064.519-1.853 0-.515-.075-.966-.225-1.354-.151-.392-.374-.697-.67-.916-.297-.223-.664-.335-1.101-.335-.447 0-.821.116-1.121.349-.297.228-.52.54-.671.937-.15.392-.225.832-.225 1.319 0 .497.075.937.225 1.32.151.378.377.672.677.882.306.21.677.314 1.115.314Zm8.171 1.512c-.748 0-1.395-.162-1.942-.486a3.249 3.249 0 0 1-1.265-1.367c-.292-.593-.438-1.284-.438-2.072 0-.784.144-1.475.431-2.072.292-.597.7-1.062 1.224-1.395.529-.337 1.149-.506 1.86-.506.433 0 .852.071 1.258.212.406.142.77.365 1.094.67.324.306.579.702.766 1.19.191.488.287 1.076.287 1.764v.533h-6.079v-1.114h5.313l-.691.369c0-.469-.072-.884-.218-1.244a1.817 1.817 0 0 0-.657-.841c-.287-.205-.645-.308-1.073-.308-.429 0-.796.103-1.101.308a2.003 2.003 0 0 0-.691.813 2.57 2.57 0 0 0-.239 1.108v.759c0 .524.091.969.274 1.333.182.365.435.643.759.834.328.192.708.288 1.141.288.283 0 .538-.041.766-.123a1.579 1.579 0 0 0 .985-.978l1.408.266a2.584 2.584 0 0 1-.601 1.081c-.288.31-.65.551-1.088.725a4.076 4.076 0 0 1-1.483.253Z"/><rect width="48.879" height="25.502" x="176.823" y="321.195" fill="#fff" fill-opacity=".1" rx="12.751"/><rect width="47.941" height="24.564" x="177.292" y="321.664" stroke="#fff" stroke-opacity=".12" stroke-width=".938" rx="12.282"/><path fill="#fff" d="M189.06 329.077v8.868h-1.321v-7.523h-.06l-2.107 1.387v-1.286l2.203-1.446h1.285Zm1.131 7.136v-1.077l3.827-6.059h.852v1.595h-.548l-2.738 4.333v.071h5.256v1.137h-6.649Zm4.19 1.732v-2.059l.012-.494v-6.315h1.274v8.868h-1.286Zm4.096.084a.855.855 0 0 1-.869-.863.854.854 0 0 1 .869-.863c.242 0 .446.083.613.249.17.167.256.372.256.614a.827.827 0 0 1-.256.613.837.837 0 0 1-.613.25Zm4.928.035c-.682 0-1.268-.178-1.756-.535-.484-.357-.855-.873-1.113-1.548-.254-.678-.381-1.5-.381-2.464 0-.96.129-1.78.387-2.458.258-.683.629-1.203 1.113-1.56.488-.361 1.071-.542 1.75-.542.683 0 1.266.181 1.75.542.488.357.859.877 1.113 1.56.258.678.387 1.498.387 2.458 0 .964-.127 1.786-.381 2.464-.254.675-.623 1.191-1.107 1.548s-1.071.535-1.762.535Zm0-1.142a1.49 1.49 0 0 0 1.054-.399c.285-.266.504-.653.654-1.161.151-.512.227-1.127.227-1.845 0-.722-.076-1.337-.227-1.845-.15-.512-.369-.901-.654-1.167a1.477 1.477 0 0 0-1.054-.405c-.615 0-1.091.3-1.428.899-.334.595-.5 1.435-.5 2.518 0 .718.075 1.333.226 1.845.151.508.369.895.654 1.161.29.266.639.399 1.048.399Zm8.916-.643v-.465c0-.337.07-.644.209-.922.139-.278.343-.5.613-.667.27-.17.597-.256.982-.256.393 0 .722.084.988.25.266.167.466.391.601.673.135.278.203.585.203.922v.465c0 .337-.07.646-.209.928-.135.278-.335.5-.601.667-.266.167-.593.25-.982.25s-.718-.083-.988-.25a1.627 1.627 0 0 1-.613-.667 2.12 2.12 0 0 1-.203-.928Zm1.006-.465v.465c0 .25.06.476.179.678.119.203.325.304.619.304.29 0 .492-.101.607-.304.115-.202.173-.428.173-.678v-.465c0-.25-.056-.474-.167-.672-.111-.203-.315-.304-.613-.304-.29 0-.496.101-.619.304a1.28 1.28 0 0 0-.179.672Zm-5.464-4.607v-.464c0-.337.07-.645.209-.922.142-.282.347-.506.613-.673.27-.167.595-.25.976-.25.393 0 .722.083.988.25.27.167.472.391.607.673.135.277.2.585.196.922v.464c.004.334-.063.641-.202.923a1.68 1.68 0 0 1-.607.673c-.266.166-.593.25-.982.25s-.718-.084-.988-.25a1.68 1.68 0 0 1-.607-.673 2.108 2.108 0 0 1-.203-.923Zm1.006-.464v.464c0 .25.06.477.179.679.119.202.323.302.613.298.293.004.498-.096.613-.298a1.35 1.35 0 0 0 .173-.679v-.464c0-.25-.056-.476-.167-.678-.111-.203-.318-.302-.619-.298-.286-.004-.49.095-.613.298a1.311 1.311 0 0 0-.179.678Zm-.595 7.202 6.095-8.868h1.036l-6.095 8.868h-1.036Z"/><rect width="87" height="35.003" x="286.823" y="316.443" fill="#fff" fill-opacity=".07" rx="7.63"/><rect width="86.062" height="34.066" x="287.292" y="316.912" stroke="#fff" stroke-opacity=".1" stroke-width=".938" rx="7.161"/><path fill="#9297A0" d="M295.908 338.945h-1.532l3.436-9.551h1.667l3.429 9.551h-1.525l-2.705-7.814h-.077l-2.693 7.814Zm.257-3.737h4.955v1.205h-4.955v-1.205Zm12.75-1.673-1.263.218a1.579 1.579 0 0 0-.455-.66c-.218-.201-.545-.301-.981-.301-.393 0-.722.089-.987.269-.261.175-.391.399-.391.673 0 .239.087.434.263.583.179.15.463.269.852.359l1.147.257c.654.149 1.144.384 1.468.705.325.32.488.73.488 1.23 0 .432-.124.817-.372 1.154-.248.334-.592.596-1.032.789-.44.188-.949.282-1.526.282-.803 0-1.457-.173-1.961-.519-.505-.347-.814-.834-.93-1.462l1.34-.205c.085.35.258.615.519.795.265.179.607.269 1.026.269.453 0 .816-.096 1.089-.288.278-.193.417-.426.417-.699 0-.453-.337-.759-1.013-.917l-1.211-.269c-.671-.154-1.167-.395-1.487-.724-.317-.334-.475-.752-.475-1.257 0-.423.118-.795.353-1.115.239-.321.566-.568.981-.744a3.602 3.602 0 0 1 1.429-.269c.778 0 1.387.169 1.827.506.444.338.739.785.885 1.34Zm6.474 0-1.263.218a1.579 1.579 0 0 0-.455-.66c-.218-.201-.545-.301-.981-.301-.393 0-.722.089-.987.269-.261.175-.391.399-.391.673a.73.73 0 0 0 .263.583c.179.15.463.269.852.359l1.148.257c.653.149 1.143.384 1.468.705.324.32.487.73.487 1.23 0 .432-.124.817-.372 1.154-.248.334-.592.596-1.032.789-.44.188-.949.282-1.526.282-.803 0-1.457-.173-1.961-.519-.504-.347-.814-.834-.93-1.462l1.34-.205c.086.35.259.615.519.795.265.179.607.269 1.026.269.453 0 .816-.096 1.09-.288.277-.193.416-.426.416-.699 0-.453-.337-.759-1.013-.917l-1.211-.269c-.671-.154-1.167-.395-1.487-.724-.316-.334-.474-.752-.474-1.257 0-.423.117-.795.352-1.115.239-.321.566-.568.981-.744a3.605 3.605 0 0 1 1.429-.269c.778 0 1.387.169 1.827.506.445.338.739.785.885 1.34Zm1.115 5.41v-7.166h1.385v7.166h-1.385Zm.699-8.269a.87.87 0 0 1-.622-.243.778.778 0 0 1-.256-.584c0-.23.085-.427.256-.589a.867.867 0 0 1 .622-.244.86.86 0 0 1 .615.244.775.775 0 0 1 .263.589.77.77 0 0 1-.263.584.863.863 0 0 1-.615.243Zm5.006 11.103c-.855 0-1.528-.161-2.019-.481-.492-.321-.831-.701-1.019-1.141l1.192-.494c.085.137.199.282.34.436.145.154.339.284.583.391.244.107.558.16.942.16.526 0 .962-.128 1.308-.384.346-.252.519-.658.519-1.218v-1.404h-.096c-.077.15-.194.318-.353.506a2.039 2.039 0 0 1-.647.481c-.273.137-.63.205-1.07.205a2.964 2.964 0 0 1-1.526-.397c-.449-.269-.808-.662-1.077-1.18-.265-.521-.397-1.162-.397-1.923 0-.76.13-1.412.391-1.955.265-.547.624-.965 1.077-1.256a2.793 2.793 0 0 1 1.544-.436c.445 0 .804.075 1.077.224.278.146.494.317.648.513.154.197.273.37.359.519h.102v-1.166h1.353v7.327c0 .615-.143 1.119-.43 1.512a2.476 2.476 0 0 1-1.154.872 4.46 4.46 0 0 1-1.647.289Zm-.013-4.103c.603 0 1.064-.207 1.385-.622.325-.418.487-.997.487-1.737 0-.483-.071-.906-.212-1.269a1.867 1.867 0 0 0-.628-.859c-.278-.209-.622-.314-1.032-.314-.419 0-.769.109-1.051.327a1.946 1.946 0 0 0-.628.878c-.141.368-.212.78-.212 1.237 0 .466.071.878.212 1.237.141.355.352.631.634.827.287.197.635.295 1.045.295Zm5.962-2.981v4.25h-1.385v-7.166h1.346v1.179h.096c.163-.389.417-.696.763-.923.346-.231.791-.346 1.333-.346.488 0 .913.103 1.276.308.367.201.652.502.853.904.205.401.307.899.307 1.493v4.551h-1.384v-4.384c0-.517-.137-.923-.411-1.218-.273-.299-.645-.449-1.115-.449-.32 0-.609.073-.865.218a1.513 1.513 0 0 0-.596.609c-.146.265-.218.59-.218.974Zm12.179-2.916v1.122h-3.91v-1.122h3.91Zm-2.866-1.705h1.391v6.769c0 .329.069.57.206.724.136.15.356.224.66.224a2.386 2.386 0 0 0 .487-.051l.263 1.154a3.228 3.228 0 0 1-.962.147c-.619 0-1.115-.173-1.487-.519-.372-.35-.558-.816-.558-1.397v-7.051Zm6.795 9.019c-.671 0-1.258-.154-1.763-.462a3.107 3.107 0 0 1-1.166-1.295c-.274-.555-.411-1.2-.411-1.935 0-.744.137-1.394.411-1.949a3.1 3.1 0 0 1 1.166-1.301c.505-.308 1.092-.462 1.763-.462.675 0 1.263.154 1.763.462.5.307.889.741 1.167 1.301.277.555.416 1.205.416 1.949 0 .735-.139 1.38-.416 1.935a3.116 3.116 0 0 1-1.167 1.295c-.5.308-1.088.462-1.763.462Zm0-1.173c.44 0 .804-.116 1.09-.346.286-.231.498-.537.634-.917.141-.385.212-.803.212-1.256 0-.462-.071-.885-.212-1.27a2.026 2.026 0 0 0-.634-.923c-.286-.23-.65-.346-1.09-.346-.436 0-.797.116-1.083.346a2.098 2.098 0 0 0-.635.923 3.667 3.667 0 0 0-.211 1.27c0 .453.07.871.211 1.256.141.38.353.686.635.917.286.23.647.346 1.083.346Z"/><g clip-path="url(#J)"><path fill="#fff" d="M358.94 331.92a.694.694 0 0 0-1.174.495.694.694 0 0 0 .191.488l2.982 2.982a.997.997 0 0 0 .695.288.993.993 0 0 0 .694-.288l2.981-2.982a.699.699 0 0 0 .192-.488.693.693 0 0 0-1.175-.495l-2.693 2.691-2.693-2.691Z"/></g></g><path fill="url(#K)" d="M-6.893.346h435.432v356.102H-6.893z"/><g filter="url(#L)"><path fill="url(#M)" fill-opacity=".05" d="M19.823 176.738h134.538v40H19.823z"/></g><g filter="url(#N)" opacity=".8"><rect width="4" height="40" x="19.823" y="176.738" fill="#fff" rx="2"/></g><rect width="2.204" height="25.714" x="20.722" y="183.881" fill="#fff" rx="1.102"/><path fill="url(#O)" d="M-6.893 13.773h435.432v340.918H-6.893z"/><g filter="url(#P)"><path fill="url(#Q)" fill-opacity=".1" d="M35.822 175.797a9.377 9.377 0 0 1 9.377-9.377h331.246a9.377 9.377 0 0 1 9.377 9.377v40.249a9.377 9.377 0 0 1-9.377 9.377H45.199a9.377 9.377 0 0 1-9.377-9.377v-40.249Z" shape-rendering="crispEdges"/><path fill="url(#R)" fill-opacity=".1" d="M35.822 175.797a9.377 9.377 0 0 1 9.377-9.377h331.246a9.377 9.377 0 0 1 9.377 9.377v40.249a9.377 9.377 0 0 1-9.377 9.377H45.199a9.377 9.377 0 0 1-9.377-9.377v-40.249Z" shape-rendering="crispEdges"/><path stroke="url(#S)" stroke-opacity=".3" stroke-width=".938" d="M36.291 175.797a8.908 8.908 0 0 1 8.908-8.908h331.246a8.908 8.908 0 0 1 8.908 8.908v40.249a8.908 8.908 0 0 1-8.908 8.908H45.199a8.908 8.908 0 0 1-8.908-8.908v-40.249Z" shape-rendering="crispEdges"/><path stroke="url(#T)" stroke-opacity=".1" stroke-width=".938" d="M36.291 175.797a8.908 8.908 0 0 1 8.908-8.908h331.246a8.908 8.908 0 0 1 8.908 8.908v40.249a8.908 8.908 0 0 1-8.908 8.908H45.199a8.908 8.908 0 0 1-8.908-8.908v-40.249Z" shape-rendering="crispEdges"/><g clip-path="url(#U)"><rect width="11" height="30" x="47.822" y="180.922" fill="#fff" fill-opacity=".1" rx="5.5"/><path fill="url(#V)" d="M47.822 180.922h11v30h-11z"/><g filter="url(#W)"><rect width="5.619" height="5.619" x="50.513" y="188.404" fill="#fff" rx="2.81"/></g></g><path fill="#fff" d="M72.945 201.422H70.43v-1.347h2.427c.775 0 1.42-.144 1.935-.431.516-.292.9-.718 1.156-1.278.255-.566.383-1.249.383-2.052 0-.797-.128-1.474-.383-2.03a2.679 2.679 0 0 0-1.128-1.265c-.502-.292-1.124-.438-1.867-.438h-2.578v-1.347h2.674c.998 0 1.855.203 2.57.609a4.051 4.051 0 0 1 1.649 1.75c.383.757.574 1.664.574 2.721 0 1.062-.194 1.974-.581 2.735a4.063 4.063 0 0 1-1.669 1.757c-.729.411-1.611.616-2.646.616Zm-1.764-10.188v10.188h-1.538v-10.188h1.538Zm11.159 10.345c-.748 0-1.395-.162-1.942-.485a3.252 3.252 0 0 1-1.265-1.368c-.291-.592-.437-1.283-.437-2.072 0-.784.143-1.474.43-2.071.292-.598.7-1.062 1.224-1.395.53-.338 1.149-.506 1.86-.506.433 0 .853.07 1.258.212.406.141.77.364 1.094.67.324.305.58.702.766 1.19.191.487.287 1.075.287 1.764v.533h-6.078v-1.115h5.312l-.69.37c0-.47-.073-.885-.219-1.245a1.82 1.82 0 0 0-.656-.841c-.288-.205-.645-.307-1.074-.307-.428 0-.795.102-1.1.307a1.99 1.99 0 0 0-.691.814 2.55 2.55 0 0 0-.24 1.108v.759c0 .524.092.968.274 1.333.182.365.435.643.759.834a2.23 2.23 0 0 0 1.142.287c.282 0 .538-.041.766-.123.232-.082.433-.205.601-.369.169-.164.296-.367.383-.609l1.409.267c-.114.41-.315.77-.602 1.08a2.92 2.92 0 0 1-1.087.725c-.433.169-.928.253-1.484.253Zm10.03-5.928-1.346.232a1.68 1.68 0 0 0-.486-.704c-.232-.214-.58-.321-1.046-.321-.42 0-.77.096-1.053.287-.278.187-.417.426-.417.718 0 .255.093.463.28.622.192.16.495.287.91.383l1.224.274c.697.159 1.219.41 1.565.752.347.342.52.779.52 1.313 0 .46-.132.87-.397 1.23-.264.356-.63.636-1.1.841-.47.201-1.012.301-1.628.301-.857 0-1.554-.184-2.092-.554-.538-.369-.868-.889-.991-1.559l1.429-.218c.09.373.275.656.553.847.283.192.648.288 1.094.288.484 0 .871-.103 1.163-.308.296-.205.444-.454.444-.745 0-.484-.36-.81-1.08-.978l-1.292-.287c-.716-.164-1.245-.422-1.587-.773-.337-.356-.506-.802-.506-1.34 0-.451.126-.848.376-1.19a2.472 2.472 0 0 1 1.047-.793c.446-.191.955-.287 1.524-.287.83 0 1.48.18 1.95.54.473.36.788.836.943 1.429Zm2.558 3.179-.02-1.811h.266l3.043-3.241h1.778l-3.467 3.692h-.246l-1.354 1.36Zm-1.368 2.592v-10.188h1.477v10.188H93.56Zm4.814 0-2.735-3.624 1.026-1.046 3.541 4.67h-1.832Zm5.949-7.644v1.196h-4.171v-1.196h4.171Zm-3.057-1.819h1.484v7.22c0 .351.073.609.219.773.146.159.38.239.704.239a2.589 2.589 0 0 0 .52-.055l.28 1.231a3.43 3.43 0 0 1-1.026.157c-.66 0-1.189-.184-1.586-.553-.396-.374-.595-.871-.595-1.491v-7.521Zm7.248 9.62c-.716 0-1.342-.164-1.88-.492a3.332 3.332 0 0 1-1.245-1.381c-.291-.593-.437-1.281-.437-2.065 0-.793.146-1.486.437-2.079a3.32 3.32 0 0 1 1.245-1.388c.538-.328 1.164-.492 1.88-.492.72 0 1.347.164 1.88.492.534.328.949.791 1.245 1.388.296.593.444 1.286.444 2.079 0 .784-.148 1.472-.444 2.065a3.325 3.325 0 0 1-1.245 1.381c-.533.328-1.16.492-1.88.492Zm0-1.251c.47 0 .857-.123 1.162-.369.306-.247.532-.572.677-.978a3.85 3.85 0 0 0 .226-1.34 3.89 3.89 0 0 0-.226-1.354 2.152 2.152 0 0 0-.677-.985c-.305-.246-.692-.369-1.162-.369-.465 0-.85.123-1.155.369a2.23 2.23 0 0 0-.677.985 3.89 3.89 0 0 0-.226 1.354c0 .483.075.93.226 1.34.15.406.376.731.677.978.305.246.69.369 1.155.369Zm4.643 3.952v-10.502h1.436v1.244h.123c.091-.16.216-.344.376-.554.164-.21.392-.392.684-.547.291-.159.672-.239 1.141-.239.616 0 1.163.155 1.641.465.484.31.864.759 1.142 1.347.278.588.417 1.297.417 2.126 0 .821-.136 1.527-.41 2.12-.273.588-.652 1.041-1.135 1.361-.479.314-1.028.471-1.648.471-.46 0-.838-.077-1.135-.232a2.253 2.253 0 0 1-.69-.554 4.748 4.748 0 0 1-.383-.554h-.082v4.048h-1.477Zm3.446-3.973c.442 0 .811-.118 1.108-.355.296-.237.519-.559.67-.964.155-.411.232-.871.232-1.381 0-.506-.075-.96-.226-1.361a2.118 2.118 0 0 0-.67-.951c-.296-.232-.667-.348-1.114-.348-.433 0-.798.111-1.094.335-.296.219-.522.529-.677.93-.15.396-.226.861-.226 1.395 0 .533.078 1.002.233 1.408.155.406.38.723.677.95.301.228.663.342 1.087.342Zm11.125 1.115h-2.517v-1.347h2.428c.775 0 1.42-.144 1.935-.431.515-.292.9-.718 1.155-1.278.255-.566.383-1.249.383-2.052 0-.797-.128-1.474-.383-2.03a2.682 2.682 0 0 0-1.128-1.265c-.501-.292-1.124-.438-1.867-.438h-2.577v-1.347h2.673c.998 0 1.855.203 2.571.609a4.05 4.05 0 0 1 1.648 1.75c.383.757.574 1.664.574 2.721 0 1.062-.194 1.974-.581 2.735a4.064 4.064 0 0 1-1.668 1.757c-.73.411-1.612.616-2.646.616Zm-1.765-10.188v10.188h-1.538v-10.188h1.538Zm11.159 10.345c-.747 0-1.395-.162-1.942-.485a3.258 3.258 0 0 1-1.265-1.368c-.291-.592-.437-1.283-.437-2.072 0-.784.143-1.474.431-2.071a3.339 3.339 0 0 1 1.224-1.395c.528-.338 1.148-.506 1.859-.506.433 0 .853.07 1.258.212.406.141.771.364 1.094.67.324.305.579.702.766 1.19.192.487.287 1.075.287 1.764v.533h-6.078v-1.115h5.313l-.691.37c0-.47-.073-.885-.219-1.245a1.82 1.82 0 0 0-.656-.841c-.287-.205-.645-.307-1.074-.307-.428 0-.795.102-1.1.307a1.998 1.998 0 0 0-.691.814c-.16.337-.239.706-.239 1.108v.759c0 .524.091.968.273 1.333.182.365.435.643.759.834a2.23 2.23 0 0 0 1.142.287c.283 0 .538-.041.766-.123a1.564 1.564 0 0 0 .984-.978l1.409.267c-.114.41-.315.77-.602 1.08-.287.31-.649.552-1.087.725-.433.169-.928.253-1.484.253Zm10.031-5.928-1.347.232a1.678 1.678 0 0 0-.486-.704c-.232-.214-.581-.321-1.046-.321-.419 0-.77.096-1.053.287-.278.187-.417.426-.417.718 0 .255.094.463.281.622.191.16.494.287.909.383l1.224.274c.697.159 1.219.41 1.566.752.346.342.519.779.519 1.313 0 .46-.132.87-.396 1.23-.265.356-.632.636-1.101.841-.47.201-1.012.301-1.627.301-.857 0-1.555-.184-2.093-.554-.538-.369-.868-.889-.991-1.559l1.429-.218c.091.373.276.656.554.847.282.192.647.288 1.094.288.483 0 .87-.103 1.162-.308.296-.205.445-.454.445-.745 0-.484-.361-.81-1.081-.978l-1.292-.287c-.716-.164-1.244-.422-1.586-.773-.338-.356-.506-.802-.506-1.34 0-.451.125-.848.376-1.19a2.47 2.47 0 0 1 1.046-.793c.447-.191.955-.287 1.525-.287.829 0 1.479.18 1.948.54.474.36.789.836.944 1.429Zm1.19 5.771v-7.644h1.477v7.644h-1.477Zm.745-8.821a.927.927 0 0 1-.663-.259.829.829 0 0 1-.274-.623c0-.246.091-.455.274-.629a.927.927 0 0 1 .663-.259c.255 0 .474.086.656.259a.828.828 0 0 1 .281.629.822.822 0 0 1-.281.623.918.918 0 0 1-.656.259Zm5.34 11.843c-.912 0-1.63-.171-2.154-.513-.524-.342-.886-.747-1.087-1.217l1.272-.526c.091.146.212.301.362.465.155.164.363.303.622.417.26.114.595.171 1.006.171.56 0 1.025-.137 1.394-.411.37-.269.554-.702.554-1.299v-1.497h-.102a3.08 3.08 0 0 1-.376.54 2.19 2.19 0 0 1-.691.513c-.292.146-.672.219-1.142.219a3.167 3.167 0 0 1-1.627-.424c-.479-.287-.862-.707-1.149-1.258-.282-.557-.424-1.24-.424-2.052 0-.811.139-1.506.417-2.085.283-.584.666-1.03 1.149-1.34a2.984 2.984 0 0 1 1.648-.465c.474 0 .857.08 1.149.239.296.155.526.337.69.547.164.21.292.394.383.554h.109v-1.244h1.443v7.815c0 .656-.153 1.194-.458 1.613-.301.42-.711.73-1.231.93-.519.205-1.105.308-1.757.308Zm-.014-4.376c.643 0 1.135-.221 1.477-.663.347-.447.52-1.065.52-1.853 0-.515-.075-.967-.226-1.354a1.984 1.984 0 0 0-.67-.916c-.296-.224-.663-.335-1.101-.335-.446 0-.82.116-1.121.348-.296.228-.52.541-.67.937a3.67 3.67 0 0 0-.226 1.32c0 .497.076.937.226 1.319.15.379.376.673.677.883.305.209.677.314 1.114.314Zm6.359-3.179v4.533h-1.477v-7.644h1.436v1.258h.103a2.13 2.13 0 0 1 .813-.985c.37-.246.844-.369 1.423-.369.519 0 .973.109 1.36.328.392.214.696.536.91.964.219.429.328.96.328 1.593v4.855h-1.477v-4.677c0-.552-.146-.985-.438-1.299-.291-.319-.688-.479-1.189-.479-.342 0-.65.078-.923.233-.269.15-.481.367-.636.649-.155.283-.233.629-.233 1.04Z"/><rect width="50.879" height="25.502" x="172.822" y="183.172" fill="#fff" fill-opacity=".1" rx="12.751"/><rect width="49.941" height="24.564" x="173.291" y="183.641" stroke="#fff" stroke-opacity=".12" stroke-width=".938" rx="12.282"/><path fill="#fff" d="M184.785 200.041a3.352 3.352 0 0 1-1.464-.31 2.682 2.682 0 0 1-1.03-.863 2.285 2.285 0 0 1-.41-1.256h1.297c.032.377.201.689.506.935.306.246.673.369 1.101.369.342 0 .643-.079.905-.238.262-.159.468-.375.619-.649.151-.278.226-.595.226-.952s-.077-.677-.232-.959a1.725 1.725 0 0 0-.643-.672 1.768 1.768 0 0 0-.934-.244c-.27 0-.54.047-.81.143a1.89 1.89 0 0 0-.654.357l-1.232-.179.5-4.47h4.874v1.149h-3.755l-.28 2.482h.047c.171-.171.399-.31.685-.417a2.59 2.59 0 0 1 .934-.166c.54 0 1.02.129 1.441.387a2.7 2.7 0 0 1 1 1.047c.242.441.363.946.363 1.518 0 .575-.131 1.089-.393 1.542a2.84 2.84 0 0 1-1.083 1.059c-.457.258-.982.387-1.578.387Zm7.155 0c-.393 0-.782-.07-1.167-.208a2.71 2.71 0 0 1-1.041-.691c-.31-.325-.56-.762-.75-1.309-.187-.548-.28-1.228-.28-2.042 0-.774.077-1.46.232-2.059.159-.604.383-1.112.673-1.524a2.968 2.968 0 0 1 1.059-.947 2.937 2.937 0 0 1 1.393-.327c.528 0 .996.105 1.405.315.408.207.74.493.994.858.258.365.418.781.482 1.25h-1.31a1.688 1.688 0 0 0-.535-.899c-.266-.234-.611-.351-1.036-.351-.651 0-1.159.283-1.524.851-.361.563-.541 1.349-.541 2.357h.065c.155-.25.343-.464.566-.643.222-.183.47-.321.744-.417.277-.095.573-.142.886-.142.512 0 .977.125 1.393.375.421.249.754.595 1 1.035.25.437.375.939.375 1.506 0 .564-.129 1.073-.387 1.53a2.802 2.802 0 0 1-1.077 1.083c-.46.266-1 .399-1.619.399Zm-.006-1.125c.341 0 .645-.083.911-.25.27-.167.484-.391.643-.673.158-.285.238-.603.238-.952 0-.341-.078-.651-.232-.929a1.732 1.732 0 0 0-.625-.66 1.648 1.648 0 0 0-.905-.25c-.337 0-.643.085-.917.256-.274.17-.492.397-.655.678a1.919 1.919 0 0 0-.006 1.84c.155.285.366.513.631.684.27.171.576.256.917.256Zm4.708 1.089a.853.853 0 0 1-.869-.863.853.853 0 0 1 .869-.863c.242 0 .447.083.613.25a.823.823 0 0 1 .256.613.821.821 0 0 1-.256.613.831.831 0 0 1-.613.25Zm2.179-.083v-.964l3-3.119c.317-.334.579-.627.785-.881.211-.258.367-.502.471-.732.107-.231.16-.475.16-.733 0-.297-.069-.553-.208-.767a1.363 1.363 0 0 0-.565-.494 1.842 1.842 0 0 0-.81-.173c-.317 0-.593.065-.827.196-.234.127-.417.31-.548.548a1.71 1.71 0 0 0-.19.827h-1.274c0-.539.123-1.011.369-1.416.25-.405.591-.718 1.024-.941a3.16 3.16 0 0 1 1.476-.339c.559 0 1.051.111 1.476.333.425.223.756.524.994.905.238.377.357.804.357 1.28 0 .329-.061.651-.184.964-.119.314-.332.665-.637 1.054a16.75 16.75 0 0 1-1.262 1.392l-1.762 1.846v.071h3.988v1.143h-5.833Zm11.595-1.667v-.464c0-.337.069-.645.208-.923.139-.277.343-.5.613-.666.27-.171.597-.256.982-.256.393 0 .722.083.988.25.266.166.467.391.601.672.135.278.203.586.203.923v.464c0 .338-.07.647-.209.929-.134.278-.335.5-.601.666-.266.167-.593.25-.982.25s-.718-.083-.988-.25a1.618 1.618 0 0 1-.613-.666 2.121 2.121 0 0 1-.202-.929Zm1.006-.464v.464c0 .25.059.476.178.679.119.202.326.303.619.303.29 0 .492-.101.607-.303.115-.203.173-.429.173-.679v-.464c0-.25-.056-.474-.167-.673-.111-.202-.315-.303-.613-.303-.289 0-.496.101-.619.303a1.285 1.285 0 0 0-.178.673Zm-5.465-4.607v-.464c0-.338.07-.645.209-.923.143-.282.347-.506.613-.673.27-.166.595-.249.976-.249.393 0 .722.083.988.249.27.167.472.391.607.673.135.278.201.585.197.923v.464c.004.333-.064.641-.203.923a1.678 1.678 0 0 1-.607.672c-.266.167-.593.25-.982.25s-.718-.083-.988-.25a1.678 1.678 0 0 1-.607-.672 2.111 2.111 0 0 1-.203-.923Zm1.006-.464v.464c0 .25.06.476.179.679.119.202.323.301.613.297.294.004.498-.095.613-.297.115-.203.173-.429.173-.679v-.464c0-.25-.056-.476-.167-.679-.111-.202-.317-.301-.619-.297-.286-.004-.49.095-.613.297a1.317 1.317 0 0 0-.179.679Zm-.595 7.202 6.095-8.869h1.036l-6.095 8.869h-1.036Z"/><rect width="87" height="35.003" x="286.822" y="178.42" fill="#fff" fill-opacity=".07" rx="7.63"/><rect width="86.062" height="34.066" x="287.291" y="178.889" stroke="#fff" stroke-opacity=".1" stroke-width=".938" rx="7.161"/><path fill="#9297A0" d="M295.908 200.922h-1.533l3.436-9.551h1.667l3.429 9.551h-1.525l-2.705-7.814h-.077l-2.692 7.814Zm.256-3.737h4.955v1.205h-4.955v-1.205Zm12.75-1.673-1.263.218a1.575 1.575 0 0 0-.455-.661c-.218-.2-.545-.301-.981-.301-.393 0-.722.09-.987.269-.261.176-.391.4-.391.673 0 .24.087.434.263.584.179.149.463.269.852.359l1.148.256c.653.15 1.143.385 1.467.705.325.321.488.731.488 1.231a1.9 1.9 0 0 1-.372 1.154c-.248.333-.592.596-1.032.788-.44.188-.949.282-1.526.282-.803 0-1.457-.173-1.961-.519-.505-.346-.814-.833-.93-1.461l1.34-.206c.085.351.258.616.519.795.265.18.607.27 1.026.27.453 0 .816-.097 1.089-.289.278-.192.417-.425.417-.699 0-.453-.337-.758-1.013-.916l-1.211-.269c-.671-.154-1.167-.396-1.487-.725-.317-.333-.475-.752-.475-1.256 0-.423.118-.795.353-1.116.239-.32.566-.568.981-.743.418-.18.895-.269 1.429-.269.778 0 1.387.168 1.827.506a2.4 2.4 0 0 1 .885 1.34Zm6.474 0-1.263.218a1.575 1.575 0 0 0-.455-.661c-.218-.2-.545-.301-.981-.301-.393 0-.722.09-.987.269-.261.176-.391.4-.391.673 0 .24.088.434.263.584.179.149.463.269.852.359l1.148.256c.654.15 1.143.385 1.468.705.324.321.487.731.487 1.231a1.9 1.9 0 0 1-.372 1.154c-.248.333-.592.596-1.032.788-.44.188-.949.282-1.526.282-.803 0-1.457-.173-1.961-.519-.504-.346-.814-.833-.93-1.461l1.34-.206c.086.351.259.616.519.795.265.18.607.27 1.026.27.453 0 .816-.097 1.09-.289.277-.192.416-.425.416-.699 0-.453-.337-.758-1.012-.916l-1.212-.269c-.671-.154-1.167-.396-1.487-.725-.316-.333-.474-.752-.474-1.256 0-.423.117-.795.352-1.116.239-.32.566-.568.981-.743.419-.18.895-.269 1.429-.269.778 0 1.387.168 1.827.506.445.338.739.784.885 1.34Zm1.115 5.41v-7.167h1.385v7.167h-1.385Zm.699-8.269a.867.867 0 0 1-.622-.244.775.775 0 0 1-.256-.583c0-.231.085-.427.256-.59a.87.87 0 0 1 .622-.243c.239 0 .444.081.615.243a.777.777 0 0 1 .263.59.768.768 0 0 1-.263.583.86.86 0 0 1-.615.244Zm5.006 11.102c-.855 0-1.528-.16-2.019-.481-.492-.32-.831-.7-1.019-1.141l1.192-.493c.085.137.199.282.34.436.145.154.339.284.583.391.244.107.558.16.942.16.526 0 .962-.128 1.308-.385.346-.252.519-.658.519-1.218v-1.403h-.096a2.806 2.806 0 0 1-.353.506 2.039 2.039 0 0 1-.647.481c-.273.137-.63.205-1.07.205a2.964 2.964 0 0 1-1.526-.398c-.449-.269-.808-.662-1.077-1.179-.265-.521-.397-1.162-.397-1.923 0-.761.13-1.412.391-1.955.265-.547.624-.966 1.077-1.256a2.793 2.793 0 0 1 1.544-.436c.445 0 .804.074 1.077.224.278.145.494.316.648.513.154.196.273.369.359.519h.102v-1.167h1.353v7.327c0 .615-.143 1.12-.43 1.513a2.476 2.476 0 0 1-1.154.872c-.487.192-1.036.288-1.647.288Zm-.013-4.102c.603 0 1.064-.208 1.385-.622.325-.419.487-.998.487-1.737 0-.483-.071-.906-.212-1.269a1.862 1.862 0 0 0-.628-.859c-.278-.21-.622-.314-1.032-.314-.419 0-.769.109-1.051.326a1.95 1.95 0 0 0-.628.879 3.43 3.43 0 0 0-.212 1.237c0 .466.071.878.212 1.237.141.355.352.63.634.827.287.196.635.295 1.045.295Zm5.962-2.981v4.25h-1.385v-7.167h1.346v1.18h.096c.163-.389.417-.697.763-.923.346-.231.791-.346 1.333-.346.488 0 .913.102 1.276.307.368.201.652.502.853.904.205.402.307.9.307 1.494v4.551h-1.384v-4.385c0-.517-.137-.923-.411-1.218-.273-.299-.645-.448-1.115-.448-.32 0-.609.072-.865.218a1.513 1.513 0 0 0-.596.609c-.146.265-.218.589-.218.974Zm12.179-2.917v1.122h-3.91v-1.122h3.91Zm-2.866-1.705h1.391v6.769c0 .329.069.571.206.725.136.149.356.224.66.224a2.51 2.51 0 0 0 .487-.051l.263 1.154a2.846 2.846 0 0 1-.462.109 3.357 3.357 0 0 1-.5.038c-.619 0-1.115-.173-1.487-.519-.372-.351-.558-.816-.558-1.398v-7.051Zm6.795 9.019c-.671 0-1.258-.154-1.763-.461-.5-.308-.888-.74-1.166-1.295-.274-.556-.411-1.201-.411-1.936 0-.743.137-1.393.411-1.949a3.118 3.118 0 0 1 1.166-1.301c.505-.307 1.092-.461 1.763-.461.675 0 1.263.154 1.763.461.5.308.889.742 1.167 1.301.277.556.416 1.206.416 1.949 0 .735-.139 1.38-.416 1.936a3.128 3.128 0 0 1-1.167 1.295c-.5.307-1.088.461-1.763.461Zm0-1.173c.44 0 .804-.115 1.09-.346.286-.231.498-.536.634-.917.141-.384.212-.803.212-1.256 0-.461-.071-.884-.212-1.269a2.02 2.02 0 0 0-.634-.923c-.286-.231-.65-.346-1.09-.346-.436 0-.797.115-1.083.346a2.093 2.093 0 0 0-.635.923 3.665 3.665 0 0 0-.211 1.269c0 .453.07.872.211 1.256.141.381.353.686.635.917.286.231.647.346 1.083.346Z"/><g clip-path="url(#X)"><path fill="#fff" d="M358.939 193.897a.697.697 0 0 0-.971.012.693.693 0 0 0-.012.97l2.982 2.982a.981.981 0 0 0 1.389 0l2.981-2.982a.695.695 0 0 0-.983-.982l-2.693 2.691-2.693-2.691Z"/></g></g></g><defs><linearGradient id="b" x1="210.823" x2="210.823" y1="21.934" y2="95.934" gradientUnits="userSpaceOnUse"><stop stop-color="#fff"/><stop offset="1" stop-color="#fff" stop-opacity=".8"/></linearGradient><linearGradient id="d" x1="166.18" x2="221.936" y1="-195.383" y2="93.791" gradientUnits="userSpaceOnUse"><stop stop-color="#fff"/><stop offset="1" stop-color="#fff" stop-opacity="0"/></linearGradient><linearGradient id="e" x1="48.736" x2="49.385" y1="21.934" y2="58.931" gradientUnits="userSpaceOnUse"><stop stop-color="#fff"/><stop offset=".38" stop-color="#fff" stop-opacity="0"/></linearGradient><linearGradient id="h" x1="110.815" x2="167.536" y1="-16.526" y2="113.724" gradientUnits="userSpaceOnUse"><stop stop-color="#fff"/><stop offset="1" stop-color="#fff" stop-opacity="0"/></linearGradient><linearGradient id="k" x1="264.815" x2="321.536" y1="-16.526" y2="113.724" gradientUnits="userSpaceOnUse"><stop stop-color="#fff"/><stop offset="1" stop-color="#fff" stop-opacity="0"/></linearGradient><linearGradient id="n" x1="334.815" x2="391.536" y1="-16.526" y2="113.724" gradientUnits="userSpaceOnUse"><stop stop-color="#fff"/><stop offset="1" stop-color="#fff" stop-opacity="0"/></linearGradient><linearGradient id="o" x1="210.823" x2="210.823" y1="110.934" y2="373.448" gradientUnits="userSpaceOnUse"><stop stop-color="#fff"/><stop offset="1" stop-color="#fff" stop-opacity=".8"/></linearGradient><linearGradient id="q" x1="166.18" x2="661.978" y1="-659.995" y2="64.86" gradientUnits="userSpaceOnUse"><stop stop-color="#fff"/><stop offset="1" stop-color="#fff" stop-opacity="0"/></linearGradient><linearGradient id="t" x1="210.823" x2="210.823" y1="235.441" y2="294.445" gradientUnits="userSpaceOnUse"><stop stop-color="#fff"/><stop offset="1" stop-color="#fff" stop-opacity=".8"/></linearGradient><linearGradient id="v" x1="169.704" x2="208.539" y1="62.166" y2="294.826" gradientUnits="userSpaceOnUse"><stop stop-color="#fff"/><stop offset="1" stop-color="#fff" stop-opacity="0"/></linearGradient><linearGradient id="w" x1="61.532" x2="61.981" y1="235.441" y2="264.944" gradientUnits="userSpaceOnUse"><stop stop-color="#fff"/><stop offset=".38" stop-color="#fff" stop-opacity="0"/></linearGradient><linearGradient id="y" x1="53.323" x2="53.323" y1="249.943" y2="318.68" gradientUnits="userSpaceOnUse"><stop offset=".124" stop-color="#B8C10B" stop-opacity="0"/><stop offset=".562" stop-color="#B8C10B"/></linearGradient><linearGradient id="C" x1="210.823" x2="210.823" y1="304.443" y2="363.447" gradientUnits="userSpaceOnUse"><stop stop-color="#fff"/><stop offset="1" stop-color="#fff" stop-opacity=".8"/></linearGradient><linearGradient id="E" x1="169.704" x2="208.539" y1="131.168" y2="363.828" gradientUnits="userSpaceOnUse"><stop stop-color="#fff"/><stop offset="1" stop-color="#fff" stop-opacity="0"/></linearGradient><linearGradient id="F" x1="61.532" x2="61.981" y1="304.443" y2="333.946" gradientUnits="userSpaceOnUse"><stop stop-color="#fff"/><stop offset=".38" stop-color="#fff" stop-opacity="0"/></linearGradient><linearGradient id="H" x1="53.323" x2="53.323" y1="318.945" y2="387.682" gradientUnits="userSpaceOnUse"><stop offset=".124" stop-color="#C1630B" stop-opacity="0"/><stop offset=".562" stop-color="#C1630B"/></linearGradient><linearGradient id="K" x1="210.823" x2="250.227" y1=".346" y2="339.343" gradientUnits="userSpaceOnUse"><stop offset=".56" stop-opacity="0"/><stop offset="1"/></linearGradient><linearGradient id="M" x1="154.361" x2="19.823" y1="196.738" y2="196.738" gradientUnits="userSpaceOnUse"><stop stop-color="#fff" stop-opacity="0"/><stop offset="1" stop-color="#999"/></linearGradient><linearGradient id="O" x1="210.823" x2="480.218" y1="13.773" y2="259.546" gradientUnits="userSpaceOnUse"><stop stop-opacity="0"/><stop offset="1"/></linearGradient><linearGradient id="Q" x1="210.822" x2="210.822" y1="166.42" y2="225.423" gradientUnits="userSpaceOnUse"><stop stop-color="#fff"/><stop offset="1" stop-color="#fff" stop-opacity=".8"/></linearGradient><linearGradient id="S" x1="169.703" x2="208.538" y1="-6.855" y2="225.805" gradientUnits="userSpaceOnUse"><stop stop-color="#fff"/><stop offset="1" stop-color="#fff" stop-opacity="0"/></linearGradient><linearGradient id="T" x1="61.532" x2="61.98" y1="166.42" y2="195.922" gradientUnits="userSpaceOnUse"><stop stop-color="#fff"/><stop offset=".38" stop-color="#fff" stop-opacity="0"/></linearGradient><linearGradient id="V" x1="53.322" x2="53.322" y1="180.922" y2="249.658" gradientUnits="userSpaceOnUse"><stop offset=".124" stop-color="#2AC10B" stop-opacity="0"/><stop offset=".562" stop-color="#2AC10B"/></linearGradient><filter id="f" width="209" height="14" x="35.823" y="71.934" color-interpolation-filters="sRGB" filterUnits="userSpaceOnUse"><feFlood flood-opacity="0" result="BackgroundImageFix"/><feBlend in="SourceGraphic" in2="BackgroundImageFix" result="shape"/><feColorMatrix in="SourceAlpha" result="hardAlpha" values="0 0 0 0 0 0 0 0 0 0 0 0 0 0 0 0 0 0 127 0"/><feOffset dy="2"/><feGaussianBlur stdDeviation="1"/><feComposite in2="hardAlpha" k2="-1" k3="1" operator="arithmetic"/><feColorMatrix values="0 0 0 0 1 0 0 0 0 1 0 0 0 0 1 0 0 0 0.25 0"/><feBlend in2="shape" result="effect1_innerShadow_212_9268"/><feColorMatrix in="SourceAlpha" result="hardAlpha" values="0 0 0 0 0 0 0 0 0 0 0 0 0 0 0 0 0 0 127 0"/><feOffset dy="4"/><feGaussianBlur stdDeviation="2"/><feComposite in2="hardAlpha" k2="-1" k3="1" operator="arithmetic"/><feColorMatrix values="0 0 0 0 1 0 0 0 0 1 0 0 0 0 1 0 0 0 0.3 0"/><feBlend in2="effect1_innerShadow_212_9268" result="effect2_innerShadow_212_9268"/></filter><filter id="i" width="91" height="14" x="248.823" y="71.934" color-interpolation-filters="sRGB" filterUnits="userSpaceOnUse"><feFlood flood-opacity="0" result="BackgroundImageFix"/><feBlend in="SourceGraphic" in2="BackgroundImageFix" result="shape"/><feColorMatrix in="SourceAlpha" result="hardAlpha" values="0 0 0 0 0 0 0 0 0 0 0 0 0 0 0 0 0 0 127 0"/><feOffset dy="2"/><feGaussianBlur stdDeviation="1"/><feComposite in2="hardAlpha" k2="-1" k3="1" operator="arithmetic"/><feColorMatrix values="0 0 0 0 1 0 0 0 0 1 0 0 0 0 1 0 0 0 0.25 0"/><feBlend in2="shape" result="effect1_innerShadow_212_9268"/><feColorMatrix in="SourceAlpha" result="hardAlpha" values="0 0 0 0 0 0 0 0 0 0 0 0 0 0 0 0 0 0 127 0"/><feOffset dy="4"/><feGaussianBlur stdDeviation="2"/><feComposite in2="hardAlpha" k2="-1" k3="1" operator="arithmetic"/><feColorMatrix values="0 0 0 0 1 0 0 0 0 1 0 0 0 0 1 0 0 0 0.3 0"/><feBlend in2="effect1_innerShadow_212_9268" result="effect2_innerShadow_212_9268"/></filter><filter id="l" width="42" height="14" x="343.823" y="71.934" color-interpolation-filters="sRGB" filterUnits="userSpaceOnUse"><feFlood flood-opacity="0" result="BackgroundImageFix"/><feBlend in="SourceGraphic" in2="BackgroundImageFix" result="shape"/><feColorMatrix in="SourceAlpha" result="hardAlpha" values="0 0 0 0 0 0 0 0 0 0 0 0 0 0 0 0 0 0 127 0"/><feOffset dy="2"/><feGaussianBlur stdDeviation="1"/><feComposite in2="hardAlpha" k2="-1" k3="1" operator="arithmetic"/><feColorMatrix values="0 0 0 0 1 0 0 0 0 1 0 0 0 0 1 0 0 0 0.25 0"/><feBlend in2="shape" result="effect1_innerShadow_212_9268"/><feColorMatrix in="SourceAlpha" result="hardAlpha" values="0 0 0 0 0 0 0 0 0 0 0 0 0 0 0 0 0 0 127 0"/><feOffset dy="4"/><feGaussianBlur stdDeviation="2"/><feComposite in2="hardAlpha" k2="-1" k3="1" operator="arithmetic"/><feColorMatrix values="0 0 0 0 1 0 0 0 0 1 0 0 0 0 1 0 0 0 0.3 0"/><feBlend in2="effect1_innerShadow_212_9268" result="effect2_innerShadow_212_9268"/></filter><filter id="s" width="395.197" height="104.201" x="13.225" y="212.843" color-interpolation-filters="sRGB" filterUnits="userSpaceOnUse"><feFlood flood-opacity="0" result="BackgroundImageFix"/><feGaussianBlur in="BackgroundImageFix" stdDeviation="11.299"/><feComposite in2="SourceAlpha" operator="in" result="effect1_backgroundBlur_212_9268"/><feBlend in="SourceGraphic" in2="effect1_backgroundBlur_212_9268" result="shape"/></filter><filter id="z" width="9.619" height="9.619" x="48.514" y="264.426" color-interpolation-filters="sRGB" filterUnits="userSpaceOnUse"><feFlood flood-opacity="0" result="BackgroundImageFix"/><feColorMatrix in="SourceAlpha" result="hardAlpha" values="0 0 0 0 0 0 0 0 0 0 0 0 0 0 0 0 0 0 127 0"/><feOffset dy="2"/><feGaussianBlur stdDeviation="1"/><feComposite in2="hardAlpha" operator="out"/><feColorMatrix values="0 0 0 0 0 0 0 0 0 0 0 0 0 0 0 0 0 0 0.5 0"/><feBlend in2="BackgroundImageFix" result="effect1_dropShadow_212_9268"/><feBlend in="SourceGraphic" in2="effect1_dropShadow_212_9268" result="shape"/></filter><filter id="B" width="395.197" height="104.201" x="13.225" y="281.845" color-interpolation-filters="sRGB" filterUnits="userSpaceOnUse"><feFlood flood-opacity="0" result="BackgroundImageFix"/><feGaussianBlur in="BackgroundImageFix" stdDeviation="11.299"/><feComposite in2="SourceAlpha" operator="in" result="effect1_backgroundBlur_212_9268"/><feBlend in="SourceGraphic" in2="effect1_backgroundBlur_212_9268" result="shape"/></filter><filter id="I" width="9.619" height="9.619" x="48.514" y="340.326" color-interpolation-filters="sRGB" filterUnits="userSpaceOnUse"><feFlood flood-opacity="0" result="BackgroundImageFix"/><feColorMatrix in="SourceAlpha" result="hardAlpha" values="0 0 0 0 0 0 0 0 0 0 0 0 0 0 0 0 0 0 127 0"/><feOffset dy="2"/><feGaussianBlur stdDeviation="1"/><feComposite in2="hardAlpha" operator="out"/><feColorMatrix values="0 0 0 0 0 0 0 0 0 0 0 0 0 0 0 0 0 0 0.5 0"/><feBlend in2="BackgroundImageFix" result="effect1_dropShadow_212_9268"/><feBlend in="SourceGraphic" in2="effect1_dropShadow_212_9268" result="shape"/></filter><filter id="L" width="193.738" height="99.2" x="-9.777" y="147.138" color-interpolation-filters="sRGB" filterUnits="userSpaceOnUse"><feFlood flood-opacity="0" result="BackgroundImageFix"/><feBlend in="SourceGraphic" in2="BackgroundImageFix" result="shape"/><feGaussianBlur result="effect1_foregroundBlur_212_9268" stdDeviation="14.8"/></filter><filter id="N" width="63.2" height="99.2" x="-9.777" y="147.138" color-interpolation-filters="sRGB" filterUnits="userSpaceOnUse"><feFlood flood-opacity="0" result="BackgroundImageFix"/><feBlend in="SourceGraphic" in2="BackgroundImageFix" result="shape"/><feGaussianBlur result="effect1_foregroundBlur_212_9268" stdDeviation="14.8"/></filter><filter id="P" width="395.197" height="104.201" x="13.224" y="143.821" color-interpolation-filters="sRGB" filterUnits="userSpaceOnUse"><feFlood flood-opacity="0" result="BackgroundImageFix"/><feGaussianBlur in="BackgroundImageFix" stdDeviation="11.299"/><feComposite in2="SourceAlpha" operator="in" result="effect1_backgroundBlur_212_9268"/><feColorMatrix in="SourceAlpha" result="hardAlpha" values="0 0 0 0 0 0 0 0 0 0 0 0 0 0 0 0 0 0 127 0"/><feOffset dy="4"/><feGaussianBlur stdDeviation="4"/><feComposite in2="hardAlpha" operator="out"/><feColorMatrix values="0 0 0 0 0 0 0 0 0 0 0 0 0 0 0 0 0 0 0.5 0"/><feBlend in2="effect1_backgroundBlur_212_9268" result="effect2_dropShadow_212_9268"/><feBlend in="SourceGraphic" in2="effect2_dropShadow_212_9268" result="shape"/></filter><filter id="W" width="9.619" height="9.619" x="48.513" y="188.404" color-interpolation-filters="sRGB" filterUnits="userSpaceOnUse"><feFlood flood-opacity="0" result="BackgroundImageFix"/><feColorMatrix in="SourceAlpha" result="hardAlpha" values="0 0 0 0 0 0 0 0 0 0 0 0 0 0 0 0 0 0 127 0"/><feOffset dy="2"/><feGaussianBlur stdDeviation="1"/><feComposite in2="hardAlpha" operator="out"/><feColorMatrix values="0 0 0 0 0 0 0 0 0 0 0 0 0 0 0 0 0 0 0.5 0"/><feBlend in2="BackgroundImageFix" result="effect1_dropShadow_212_9268"/><feBlend in="SourceGraphic" in2="effect1_dropShadow_212_9268" result="shape"/></filter><clipPath id="a"><path fill="#fff" d="M.823.691h420v354h-420z"/></clipPath><clipPath id="g"><rect width="209" height="10" x="35.823" y="71.934" fill="#fff" rx="5"/></clipPath><clipPath id="j"><rect width="91" height="10" x="248.823" y="71.934" fill="#fff" rx="5"/></clipPath><clipPath id="m"><rect width="42" height="10" x="343.823" y="71.934" fill="#fff" rx="5"/></clipPath><clipPath id="x"><rect width="11" height="30" x="47.823" y="249.943" fill="#fff" rx="5.5"/></clipPath><clipPath id="A"><path fill="#fff" d="M356.944 262.338h9.377v5.209h-9.377z"/></clipPath><clipPath id="G"><rect width="11" height="30" x="47.823" y="318.945" fill="#fff" rx="5.5"/></clipPath><clipPath id="J"><path fill="#fff" d="M356.944 331.34h9.377v5.209h-9.377z"/></clipPath><clipPath id="U"><rect width="11" height="30" x="47.822" y="180.922" fill="#fff" rx="5.5"/></clipPath><clipPath id="X"><path fill="#fff" d="M356.943 193.316h9.377v5.209h-9.377z"/></clipPath><radialGradient id="c" cx="0" cy="0" r="1" gradientTransform="matrix(0 74 -190 0 210.9 21.904)" gradientUnits="userSpaceOnUse"><stop stop-color="#fff"/><stop offset="1" stop-color="#fff" stop-opacity="0"/></radialGradient><radialGradient id="p" cx="0" cy="0" r="1" gradientTransform="matrix(0 262.515 -190 0 210.9 110.781)" gradientUnits="userSpaceOnUse"><stop stop-color="#fff"/><stop offset="1" stop-color="#fff" stop-opacity="0"/></radialGradient><radialGradient id="u" cx="0" cy="0" r="1" gradientTransform="matrix(0 59.0033 -175 0 210.823 235.441)" gradientUnits="userSpaceOnUse"><stop stop-color="#fff"/><stop offset="1" stop-color="#fff" stop-opacity="0"/></radialGradient><radialGradient id="D" cx="0" cy="0" r="1" gradientTransform="matrix(0 59.0033 -175 0 210.823 304.443)" gradientUnits="userSpaceOnUse"><stop stop-color="#fff"/><stop offset="1" stop-color="#fff" stop-opacity="0"/></radialGradient><radialGradient id="R" cx="0" cy="0" r="1" gradientTransform="matrix(0 59.0033 -175 0 210.822 166.42)" gradientUnits="userSpaceOnUse"><stop stop-color="#fff"/><stop offset="1" stop-color="#fff" stop-opacity="0"/></radialGradient></defs></svg>