<svg width="18" height="20" viewBox="0 0 18 20" fill="none" xmlns="http://www.w3.org/2000/svg">
<path d="M13.707 5.404C13.518 5.216 13.259 5.121 13 5.121C12.741 5.121 12.482 5.216 12.293 5.404L10 7.697V1C10 0.734784 9.89464 0.48043 9.70711 0.292893C9.51957 0.105357 9.26522 0 9 0C8.73478 0 8.48043 0.105357 8.29289 0.292893C8.10536 0.48043 8 0.734784 8 1V7.697L5.707 5.404C5.61435 5.31081 5.50419 5.23687 5.38285 5.1864C5.26152 5.13594 5.13141 5.10997 5 5.10997C4.86859 5.10997 4.73848 5.13594 4.61715 5.1864C4.49581 5.23687 4.38565 5.31081 4.293 5.404C4.10553 5.59153 4.00021 5.84584 4.00021 6.111C4.00021 6.37616 4.10553 6.63047 4.293 6.818L9 11.5L13.709 6.816C13.8956 6.62829 14.0002 6.37426 13.9998 6.10959C13.9994 5.84491 13.8941 5.59118 13.707 5.404ZM17.987 14C17.991 13.8933 17.9778 13.7866 17.948 13.684L15.948 7.684C15.8817 7.48496 15.7545 7.3118 15.5844 7.18905C15.4142 7.0663 15.2098 7.00016 15 7H14.781C14.687 7.188 14.571 7.368 14.414 7.525L12.932 9H14.28L15.947 14H2.054L3.721 9H5.069L3.586 7.525C3.43625 7.37085 3.31233 7.19358 3.219 7H3C2.79021 7.00016 2.58578 7.0663 2.41564 7.18905C2.24551 7.3118 2.11829 7.48496 2.052 7.684L0.052 13.684C0.0222069 13.7866 0.00904003 13.8933 0.013 14C1.11759e-08 14 0 19 0 19C0 19.2652 0.105357 19.5196 0.292893 19.7071C0.48043 19.8946 0.734784 20 1 20H17C17.2652 20 17.5196 19.8946 17.7071 19.7071C17.8946 19.5196 18 19.2652 18 19C18 19 18 14 17.987 14Z" fill="white"/>
</svg>
